<svg width="26" height="26" viewBox="0 0 26 26" fill="none" xmlns="http://www.w3.org/2000/svg">
<path d="M5.952 15.696C5.104 15.696 4.288 15.568 3.504 15.312C2.736 15.072 2.112 14.664 1.632 14.088C1.152 13.512 0.912 12.736 0.912 11.76C0.912 10.72 1.112 9.704 1.512 8.712C1.912 7.72 2.448 6.8 3.12 5.952C3.792 5.088 4.544 4.344 5.376 3.72C6.112 3.16 6.96 2.704 7.92 2.352C8.896 2 9.864 1.824 10.824 1.824C11.224 1.824 11.6 1.856 11.952 1.92C12.304 1.968 12.664 2.08 13.032 2.256C13.352 2.4 13.608 2.584 13.8 2.808C13.992 3.016 14.088 3.256 14.088 3.528C14.088 3.56 14.088 3.6 14.088 3.648C14.088 3.696 14.08 3.736 14.064 3.768C14 4.024 13.848 4.32 13.608 4.656C13.384 4.976 13.208 5.312 13.08 5.664C13.064 5.728 12.976 5.784 12.816 5.832C12.656 5.864 12.592 5.848 12.624 5.784C12.752 5.576 12.848 5.32 12.912 5.016C12.992 4.712 13.032 4.408 13.032 4.104C13.032 3.88 13.008 3.672 12.96 3.48C12.928 3.272 12.864 3.096 12.768 2.952C12.608 2.664 12.36 2.464 12.024 2.352C11.688 2.24 11.328 2.184 10.944 2.184C10.576 2.184 10.208 2.224 9.84 2.304C9.472 2.384 9.152 2.472 8.88 2.568C7.952 2.904 7.064 3.432 6.216 4.152C5.464 4.808 4.792 5.568 4.2 6.432C3.624 7.296 3.168 8.184 2.832 9.096C2.496 10.008 2.328 10.88 2.328 11.712C2.328 12.56 2.512 13.232 2.88 13.728C3.248 14.224 3.728 14.576 4.32 14.784C4.912 14.992 5.552 15.096 6.24 15.096C6.848 15.096 7.448 15.032 8.04 14.904C8.648 14.776 9.2 14.616 9.696 14.424C10.544 14.104 11.304 13.712 11.976 13.248C12.664 12.784 13.304 12.184 13.896 11.448C13.976 11.368 14.032 11.328 14.064 11.328C14.112 11.328 14.136 11.36 14.136 11.424C14.136 11.552 14.072 11.704 13.944 11.88C13.4 12.616 12.784 13.232 12.096 13.728C11.408 14.224 10.672 14.632 9.888 14.952C9.36 15.16 8.744 15.336 8.04 15.48C7.352 15.624 6.656 15.696 5.952 15.696Z" fill="#101828"/>
<path d="M12 8.11719L9.96094 7.63672V6.32422L14.5195 6.19531H17.1562C18.8516 6.19531 20.1758 6.58203 21.1289 7.35547C22.082 8.12109 22.5586 9.17578 22.5586 10.5195C22.5586 12.8711 21.5195 14.4297 19.4414 15.1953C19.8242 15.5312 20.3047 16.2539 20.8828 17.3633L22.7812 21.1719L24.4805 21.5586V23H20.8828L18.8438 18.5586C18.4609 17.7305 18.125 17.1211 17.8359 16.7305C17.5469 16.332 17.2383 16.0586 16.9102 15.9102C16.582 15.7539 16.1445 15.6758 15.5977 15.6758H14.5195V21.0781L16.5586 21.5586V23H9.96094V21.5586L12 21.0781V8.11719ZM16.3242 13.8828C17.4883 13.8828 18.3984 13.6211 19.0547 13.0977C19.7109 12.5664 20.0391 11.8281 20.0391 10.8828C20.0391 10.0859 19.7578 9.42578 19.1953 8.90234C18.6406 8.37891 17.9219 8.11719 17.0391 8.11719H14.5195V13.8828H16.3242Z" fill="#101828"/>
</svg>
