<svg aria-hidden="true" style="position: absolute; width: 0; height: 0; overflow: hidden;" version="1.1" xmlns="http://www.w3.org/2000/svg" xmlns:xlink="http://www.w3.org/1999/xlink">
<defs>
<symbol id="icon-logo" viewBox="0 0 66 32">
<path d="M4.535 15.006c-0.646 0-1.268-0.098-1.865-0.293-0.585-0.183-1.061-0.494-1.426-0.933s-0.549-1.030-0.549-1.774c0-0.792 0.152-1.566 0.457-2.322s0.713-1.457 1.225-2.103c0.512-0.658 1.085-1.225 1.719-1.701 0.561-0.427 1.207-0.774 1.938-1.042 0.744-0.268 1.481-0.402 2.213-0.402 0.305 0 0.591 0.024 0.859 0.073 0.268 0.037 0.542 0.122 0.823 0.256 0.244 0.11 0.439 0.25 0.585 0.421 0.146 0.158 0.219 0.341 0.219 0.549 0 0.024 0 0.055 0 0.091s-0.006 0.067-0.018 0.091c-0.049 0.195-0.165 0.421-0.347 0.677-0.171 0.244-0.305 0.5-0.402 0.768-0.012 0.049-0.079 0.091-0.201 0.128-0.122 0.024-0.171 0.012-0.146-0.037 0.098-0.158 0.171-0.354 0.219-0.585 0.061-0.232 0.091-0.463 0.091-0.695 0-0.171-0.018-0.329-0.055-0.475-0.024-0.158-0.073-0.293-0.146-0.402-0.122-0.219-0.311-0.372-0.567-0.457s-0.53-0.128-0.823-0.128c-0.28 0-0.561 0.030-0.841 0.091s-0.524 0.128-0.731 0.201c-0.707 0.256-1.384 0.658-2.030 1.207-0.573 0.5-1.085 1.079-1.536 1.737-0.439 0.658-0.786 1.335-1.042 2.030s-0.384 1.359-0.384 1.993c0 0.646 0.14 1.158 0.421 1.536s0.646 0.646 1.097 0.805c0.451 0.158 0.939 0.238 1.463 0.238 0.463 0 0.92-0.049 1.371-0.146 0.463-0.098 0.884-0.219 1.262-0.366 0.646-0.244 1.225-0.542 1.737-0.896 0.524-0.354 1.012-0.811 1.463-1.371 0.061-0.061 0.104-0.091 0.128-0.091 0.037 0 0.055 0.024 0.055 0.073 0 0.098-0.049 0.213-0.146 0.347-0.414 0.561-0.884 1.030-1.408 1.408s-1.085 0.689-1.682 0.933c-0.402 0.158-0.872 0.293-1.408 0.402-0.524 0.11-1.054 0.165-1.591 0.165zM12.751 14.531c-0.122 0-0.226-0.024-0.311-0.073s-0.128-0.14-0.128-0.274c0-0.171 0.043-0.366 0.128-0.585s0.183-0.433 0.293-0.64c0.11-0.219 0.207-0.396 0.293-0.53-0.427 0.451-0.872 0.878-1.335 1.28-0.232 0.195-0.488 0.378-0.768 0.549s-0.579 0.256-0.896 0.256c-0.122 0-0.207-0.037-0.256-0.11-0.049-0.085-0.073-0.183-0.073-0.293 0-0.061 0.006-0.104 0.018-0.128 0.061-0.475 0.213-0.969 0.457-1.481s0.542-0.994 0.896-1.445c0.354-0.451 0.713-0.817 1.079-1.097 0.414-0.317 0.872-0.475 1.371-0.475h2.103c0.061 0 0.091 0.024 0.091 0.073 0 0.098-0.055 0.146-0.165 0.146-0.122 0-0.244 0.079-0.366 0.238-0.122 0.146-0.213 0.268-0.274 0.366-0.085 0.134-0.219 0.36-0.402 0.677s-0.372 0.664-0.567 1.042c-0.183 0.366-0.341 0.707-0.475 1.024s-0.201 0.549-0.201 0.695c0 0.171 0.085 0.256 0.256 0.256 0.183 0 0.39-0.085 0.622-0.256s0.463-0.378 0.695-0.622c0.244-0.256 0.463-0.506 0.658-0.75 0.207-0.256 0.372-0.457 0.494-0.603 0.073 0.073 0.067 0.177-0.018 0.311-0.073 0.122-0.14 0.219-0.201 0.293-0.244 0.317-0.524 0.646-0.841 0.987-0.317 0.329-0.664 0.61-1.042 0.841-0.366 0.219-0.744 0.329-1.134 0.329zM10.777 13.891c0.146 0 0.347-0.104 0.603-0.311 0.268-0.219 0.555-0.488 0.859-0.805 0.305-0.329 0.591-0.67 0.859-1.024 0.268-0.366 0.488-0.695 0.658-0.987 0.183-0.305 0.274-0.536 0.274-0.695 0-0.134-0.043-0.226-0.128-0.274-0.073-0.049-0.171-0.073-0.293-0.073-0.195 0-0.408 0.073-0.64 0.219-0.219 0.134-0.396 0.268-0.53 0.402-0.146 0.134-0.323 0.347-0.53 0.64-0.195 0.28-0.39 0.591-0.585 0.933s-0.36 0.67-0.494 0.987c-0.134 0.317-0.201 0.573-0.201 0.768 0 0.146 0.049 0.219 0.146 0.219zM15.749 14.75c-0.049 0-0.049-0.055 0-0.165 0.061-0.11 0.116-0.232 0.165-0.366 0.061-0.134 0.122-0.28 0.183-0.439 0.122-0.293 0.256-0.622 0.402-0.987s0.286-0.719 0.421-1.061c0.134-0.354 0.25-0.652 0.347-0.896 0.11-0.256 0.183-0.421 0.219-0.494-0.171 0.183-0.378 0.414-0.622 0.695-0.232 0.268-0.451 0.53-0.658 0.786s-0.366 0.457-0.475 0.603c-0.037 0.049-0.067 0.073-0.091 0.073s-0.037-0.030-0.037-0.091c0-0.098 0.030-0.189 0.091-0.274 0.232-0.293 0.488-0.622 0.768-0.987 0.293-0.366 0.555-0.701 0.786-1.006 0.232-0.317 0.378-0.524 0.439-0.622 0.134-0.024 0.329-0.061 0.585-0.11 0.268-0.049 0.451-0.116 0.549-0.201 0.037-0.037 0.073-0.055 0.11-0.055 0.024 0 0.037 0.024 0.037 0.073 0.012 0.037 0 0.079-0.037 0.128-0.073 0.085-0.201 0.286-0.384 0.603-0.171 0.305-0.36 0.646-0.567 1.024-0.195 0.378-0.378 0.719-0.549 1.024 0.195-0.232 0.384-0.451 0.567-0.658 0.195-0.207 0.329-0.354 0.402-0.439 0.146-0.146 0.347-0.329 0.603-0.549s0.524-0.421 0.805-0.603c0.28-0.183 0.524-0.286 0.731-0.311 0.049-0.012 0.091-0.018 0.128-0.018s0.073 0 0.11 0c0.232 0 0.347 0.085 0.347 0.256 0 0.073-0.018 0.158-0.055 0.256s-0.085 0.195-0.146 0.293c-0.073 0.146-0.195 0.378-0.366 0.695-0.171 0.305-0.323 0.585-0.457 0.841l0.859-0.859c0.146-0.146 0.347-0.329 0.603-0.549s0.524-0.421 0.805-0.603c0.28-0.183 0.524-0.286 0.731-0.311 0.049-0.012 0.091-0.018 0.128-0.018 0.049 0 0.085 0 0.11 0 0.268 0 0.402 0.098 0.402 0.293 0 0.146-0.079 0.341-0.238 0.585-0.085 0.134-0.219 0.36-0.402 0.677s-0.372 0.664-0.567 1.042c-0.183 0.366-0.341 0.707-0.475 1.024s-0.201 0.549-0.201 0.695c0 0.171 0.085 0.256 0.256 0.256 0.158 0 0.36-0.091 0.603-0.274 0.256-0.195 0.512-0.427 0.768-0.695 0.268-0.268 0.5-0.524 0.695-0.768 0.085-0.098 0.165-0.195 0.238-0.293 0.085-0.11 0.134-0.171 0.146-0.183 0.024 0.024 0.037 0.067 0.037 0.128 0 0.085-0.030 0.171-0.091 0.256-0.049 0.073-0.098 0.14-0.146 0.201-0.232 0.305-0.5 0.622-0.805 0.951-0.293 0.329-0.616 0.61-0.969 0.841-0.354 0.219-0.731 0.347-1.134 0.384-0.122 0.012-0.244-0.012-0.366-0.073s-0.183-0.158-0.183-0.293c0-0.171 0.043-0.372 0.128-0.603 0.098-0.232 0.201-0.463 0.311-0.695 0.122-0.232 0.213-0.421 0.274-0.567 0.219-0.427 0.421-0.829 0.603-1.207s0.311-0.646 0.384-0.805c0.037-0.073 0.055-0.134 0.055-0.183 0-0.085-0.067-0.091-0.201-0.018s-0.299 0.183-0.494 0.329c-0.183 0.146-0.354 0.293-0.512 0.439-0.158 0.134-0.262 0.226-0.311 0.274-0.207 0.207-0.457 0.488-0.75 0.841-0.28 0.354-0.542 0.725-0.786 1.115-0.244 0.378-0.414 0.731-0.512 1.061-0.122 0.11-0.238 0.165-0.347 0.165-0.085 0-0.158-0.030-0.219-0.091-0.049-0.061-0.073-0.134-0.073-0.219 0-0.244 0.073-0.53 0.219-0.859 0.158-0.341 0.286-0.622 0.384-0.841 0.219-0.427 0.421-0.829 0.603-1.207s0.311-0.646 0.384-0.805c0.037-0.073 0.055-0.134 0.055-0.183 0-0.085-0.067-0.091-0.201-0.018s-0.299 0.183-0.494 0.329c-0.183 0.146-0.354 0.293-0.512 0.439-0.158 0.134-0.262 0.226-0.311 0.274-0.293 0.305-0.567 0.616-0.823 0.933-0.244 0.317-0.451 0.658-0.622 1.024-0.098 0.219-0.201 0.463-0.311 0.731s-0.201 0.494-0.274 0.677c-0.158 0.012-0.317 0.055-0.475 0.128s-0.268 0.11-0.329 0.11zM18.432 20.876c-0.463 0-0.908-0.11-1.335-0.329-0.439-0.207-0.762-0.53-0.969-0.969-0.073-0.158-0.122-0.329-0.146-0.512-0.024-0.171-0.037-0.341-0.037-0.512v-0.201c0-0.098 0.012-0.189 0.037-0.274 0.024-0.073 0.085-0.11 0.183-0.11 0.037 0 0.055 0.012 0.055 0.037 0 0.073-0.006 0.146-0.018 0.219-0.024 0.073-0.037 0.152-0.037 0.238 0 0.561 0.183 0.987 0.549 1.28 0.354 0.293 0.798 0.439 1.335 0.439 0.219 0 0.445-0.024 0.677-0.073s0.451-0.116 0.658-0.201c0.768-0.329 1.438-0.792 2.011-1.39s1.073-1.274 1.499-2.030c0.427-0.756 0.805-1.53 1.134-2.322 0.354-0.866 0.689-1.719 1.006-2.56 0.329-0.853 0.695-1.688 1.097-2.505 0.378-0.756 0.78-1.323 1.207-1.701s0.853-0.567 1.28-0.567c0.11 0 0.213 0.030 0.311 0.091 0.11 0.061 0.158 0.158 0.146 0.293l-0.037 0.512c0 0.037-0.024 0.055-0.073 0.055 0 0-0.006 0-0.018 0 0 0 0-0.006 0-0.018 0-0.146-0.055-0.244-0.165-0.293-0.098-0.061-0.195-0.091-0.293-0.091-0.414 0-0.786 0.146-1.115 0.439-0.317 0.28-0.597 0.646-0.841 1.097s-0.451 0.926-0.622 1.426c-0.171 0.488-0.311 0.939-0.421 1.353 0.085-0.073 0.238-0.226 0.457-0.457 0.232-0.232 0.5-0.482 0.805-0.75s0.616-0.5 0.933-0.695c0.317-0.195 0.61-0.293 0.878-0.293 0.158 0 0.25 0.073 0.274 0.219 0.037 0.134 0.043 0.262 0.018 0.384-0.061 0.451-0.213 0.939-0.457 1.463s-0.561 1.024-0.951 1.499c-0.378 0.463-0.805 0.841-1.28 1.134-0.463 0.293-0.951 0.439-1.463 0.439-0.061 0-0.146-0.006-0.256-0.018-0.098 0-0.158-0.012-0.183-0.037-0.256 0.768-0.585 1.554-0.987 2.359s-0.884 1.53-1.445 2.176c-0.573 0.658-1.25 1.152-2.030 1.481-0.414 0.183-0.872 0.274-1.371 0.274zM24.979 14.33c0.183 0 0.39-0.073 0.622-0.219 0.244-0.158 0.427-0.299 0.549-0.421 0.146-0.134 0.317-0.341 0.512-0.622 0.207-0.293 0.408-0.61 0.603-0.951 0.207-0.341 0.378-0.67 0.512-0.987s0.201-0.573 0.201-0.768c0-0.061-0.012-0.116-0.037-0.165s-0.067-0.073-0.128-0.073c-0.11 0-0.256 0.067-0.439 0.201s-0.378 0.299-0.585 0.494c-0.195 0.183-0.378 0.366-0.549 0.549-0.171 0.171-0.293 0.299-0.366 0.384-0.122 0.146-0.286 0.36-0.494 0.64s-0.39 0.567-0.549 0.859c-0.158 0.28-0.238 0.518-0.238 0.713 0 0.244 0.128 0.366 0.384 0.366zM29.932 14.622c-0.5 0-0.847-0.098-1.042-0.293s-0.293-0.433-0.293-0.713c0-0.354 0.091-0.731 0.274-1.134 0.195-0.402 0.378-0.744 0.549-1.024 0.195-0.293 0.457-0.597 0.786-0.914s0.689-0.585 1.079-0.805c0.39-0.219 0.768-0.329 1.134-0.329 0.317 0 0.536 0.079 0.658 0.238 0.122 0.146 0.183 0.323 0.183 0.53 0 0.378-0.116 0.689-0.347 0.933-0.219 0.244-0.494 0.445-0.823 0.603-0.329 0.146-0.646 0.268-0.951 0.366-0.183 0.049-0.396 0.098-0.64 0.146s-0.475 0.073-0.695 0.073c-0.085 0.219-0.152 0.433-0.201 0.64s-0.073 0.396-0.073 0.567c0 0.207 0.049 0.378 0.146 0.512 0.11 0.134 0.286 0.201 0.53 0.201 0.098 0 0.213-0.012 0.347-0.037s0.28-0.061 0.439-0.11c0.366-0.122 0.725-0.317 1.079-0.585s0.677-0.555 0.969-0.859c0.305-0.317 0.536-0.579 0.695-0.786 0.037 0.037 0.055 0.079 0.055 0.128 0 0.061-0.043 0.158-0.128 0.293-0.244 0.341-0.561 0.695-0.951 1.061s-0.823 0.677-1.298 0.933c-0.475 0.244-0.969 0.366-1.481 0.366zM29.95 11.934c0.158 0.012 0.335 0.012 0.53 0 0.207-0.024 0.408-0.067 0.603-0.128 0.5-0.146 0.859-0.378 1.079-0.695 0.232-0.329 0.347-0.622 0.347-0.878 0-0.146-0.030-0.268-0.091-0.366s-0.158-0.146-0.293-0.146c-0.354 0-0.67 0.134-0.951 0.402-0.28 0.256-0.524 0.555-0.731 0.896s-0.372 0.646-0.494 0.914zM33.553 14.732c-0.049 0-0.049-0.049 0-0.146 0.061-0.11 0.116-0.232 0.165-0.366 0.061-0.134 0.122-0.28 0.183-0.439 0.122-0.293 0.256-0.622 0.402-0.987s0.286-0.719 0.421-1.061c0.134-0.354 0.25-0.652 0.347-0.896 0.11-0.256 0.183-0.421 0.219-0.494-0.171 0.183-0.378 0.414-0.622 0.695-0.232 0.268-0.451 0.53-0.658 0.786s-0.366 0.457-0.475 0.603c-0.037 0.049-0.067 0.073-0.091 0.073s-0.037-0.030-0.037-0.091c0-0.098 0.030-0.189 0.091-0.274 0.232-0.293 0.488-0.622 0.768-0.987 0.293-0.366 0.555-0.701 0.786-1.006 0.232-0.317 0.378-0.524 0.439-0.622 0.134-0.024 0.329-0.061 0.585-0.11 0.268-0.049 0.451-0.116 0.549-0.201 0.037-0.037 0.073-0.055 0.11-0.055 0.024 0 0.037 0.024 0.037 0.073 0.012 0.037 0 0.079-0.037 0.128-0.073 0.073-0.183 0.232-0.329 0.475-0.134 0.244-0.286 0.524-0.457 0.841s-0.335 0.622-0.494 0.914c0.122-0.183 0.28-0.396 0.475-0.64 0.207-0.256 0.433-0.5 0.677-0.731 0.244-0.244 0.488-0.445 0.731-0.603 0.256-0.158 0.494-0.238 0.713-0.238 0.158 0 0.293 0.037 0.402 0.11 0.11 0.061 0.195 0.177 0.256 0.347 0.037 0.085 0.055 0.183 0.055 0.293 0 0.207-0.055 0.408-0.165 0.603-0.098 0.183-0.171 0.323-0.219 0.421-0.012 0.037-0.055 0.073-0.128 0.11-0.073 0.024-0.104 0.012-0.091-0.037 0.012-0.061 0.018-0.122 0.018-0.183 0.012-0.061 0.018-0.128 0.018-0.201 0-0.207-0.043-0.396-0.128-0.567-0.073-0.171-0.213-0.256-0.421-0.256-0.195 0-0.433 0.122-0.713 0.366s-0.561 0.524-0.841 0.841c-0.354 0.414-0.634 0.811-0.841 1.189-0.207 0.366-0.378 0.725-0.512 1.079-0.073 0.195-0.146 0.39-0.219 0.585-0.073 0.183-0.128 0.329-0.165 0.439-0.158 0.012-0.317 0.049-0.475 0.11-0.158 0.073-0.268 0.11-0.329 0.11z"></path>
<path d="M7.619 18.375l-1.554-0.366v-1l3.473-0.098h2.009c1.292 0 2.301 0.295 3.027 0.884 0.726 0.583 1.089 1.387 1.089 2.411 0 1.792-0.792 2.979-2.375 3.563 0.292 0.256 0.658 0.807 1.098 1.652l1.446 2.902 1.295 0.295v1.098h-2.741l-1.554-3.384c-0.292-0.631-0.548-1.095-0.768-1.393-0.22-0.304-0.455-0.512-0.705-0.625-0.25-0.119-0.583-0.179-1-0.179h-0.822v4.116l1.554 0.366v1.098h-5.027v-1.098l1.554-0.366v-9.875zM10.914 22.768c0.887 0 1.58-0.199 2.080-0.598 0.5-0.405 0.75-0.967 0.75-1.688 0-0.607-0.214-1.11-0.643-1.509-0.423-0.399-0.97-0.598-1.643-0.598h-1.92v4.393h1.375zM19.878 25.143c0 1 0.244 1.801 0.732 2.402 0.488 0.595 1.128 0.893 1.92 0.893 0.536 0 1.033-0.074 1.491-0.223s0.836-0.309 1.134-0.482c0.298-0.178 0.446-0.28 0.446-0.304l0.643 0.946c0 0.024-0.199 0.173-0.598 0.446-0.393 0.268-0.881 0.515-1.464 0.741-0.577 0.22-1.19 0.33-1.839 0.33-1.44 0-2.533-0.434-3.277-1.304-0.738-0.869-1.107-2.077-1.107-3.625 0-0.964 0.188-1.836 0.563-2.616 0.381-0.78 0.911-1.393 1.589-1.839 0.685-0.446 1.461-0.67 2.33-0.67 2.56 0 3.839 1.432 3.839 4.295 0 0.196-0.012 0.393-0.036 0.589s-0.042 0.324-0.054 0.384l-6.313 0.036zM24.342 23.768c0-0.744-0.161-1.345-0.482-1.804-0.316-0.464-0.821-0.696-1.518-0.696-0.708 0-1.271 0.238-1.687 0.714-0.411 0.476-0.646 1.071-0.705 1.786h4.393zM31.012 21.321c0.381-0.327 0.878-0.655 1.491-0.982 0.619-0.333 1.256-0.5 1.911-0.5 0.976 0 1.708 0.292 2.196 0.875 0.488 0.577 0.732 1.384 0.732 2.42v5.116l1.366 0.455v1.009h-4.384v-1.009l1.188-0.455v-4.937c0-0.661-0.128-1.146-0.384-1.455s-0.676-0.464-1.259-0.464c-0.464 0-0.893 0.11-1.286 0.33-0.387 0.22-0.711 0.458-0.973 0.714s-0.393 0.396-0.393 0.42v5.393l1.187 0.455v1.009h-4.571v-1.009l1.554-0.455v-6.768l-1.554-0.366v-1l3.018-0.089 0.161 1.295zM45.941 21.482h-2.652v5.875c0 0.744 0.304 1.116 0.911 1.116 0.393 0 0.869-0.152 1.429-0.455l0.491 0.964c-0.827 0.607-1.682 0.911-2.562 0.911-0.619 0-1.125-0.202-1.518-0.607-0.387-0.411-0.58-1.089-0.58-2.036v-5.768h-1.83v-1.188l1.83-0.179v-2.304l1.83-0.366v2.67h2.652v1.366zM47.851 20.571c0.095-0.036 0.333-0.11 0.714-0.223 0.387-0.119 0.842-0.232 1.366-0.339 0.524-0.113 1.018-0.17 1.482-0.17 1.107 0 1.946 0.22 2.518 0.661 0.577 0.441 0.866 1.167 0.866 2.179v5.571l1.464 0.366v1.009l-2.839 0.089-0.384-1.277c-0.393 0.393-0.848 0.735-1.366 1.027-0.512 0.286-1.057 0.429-1.634 0.429-0.863 0-1.536-0.238-2.018-0.714-0.482-0.482-0.723-1.158-0.723-2.027 0-1.012 0.363-1.735 1.089-2.17 0.726-0.441 1.765-0.661 3.116-0.661h1.464v-1.464c0-0.536-0.149-0.943-0.446-1.223s-0.729-0.42-1.295-0.42c-0.327 0-0.628 0.021-0.902 0.062s-0.491 0.083-0.652 0.125c-0.155 0.042-0.25 0.069-0.286 0.080l-0.259 1.375h-1.188l-0.089-2.286zM51.691 25.509c-0.905 0-1.554 0.122-1.946 0.366-0.387 0.244-0.58 0.64-0.58 1.188 0 0.417 0.119 0.75 0.357 1s0.566 0.375 0.982 0.375c0.405 0 0.789-0.11 1.152-0.33s0.673-0.458 0.929-0.714c0.256-0.256 0.384-0.396 0.384-0.42v-1.464h-1.277zM62.333 29.714h-5.062v-1.009l1.554-0.455v-11.152l-1.554-0.366v-1.009l3.42-0.089v12.616l1.643 0.455v1.009z"></path>
</symbol>
<symbol id="icon-ac" viewBox="0 0 40 32">
<path d="M19.38 0c-1.876 0-3.695 0.641-5.146 1.812s-2.446 2.801-2.814 4.613l-0.145 0.719c-0.039 0.161-0.044 0.328-0.016 0.49s0.090 0.318 0.18 0.457c0.091 0.139 0.209 0.259 0.347 0.352s0.295 0.158 0.459 0.19c0.165 0.032 0.334 0.032 0.498-0.002s0.32-0.099 0.458-0.193c0.138-0.094 0.255-0.214 0.345-0.354s0.15-0.296 0.177-0.459l0.148-0.716c0.277-1.343 1.051-2.537 2.171-3.351s2.507-1.189 3.892-1.054c1.385 0.135 2.67 0.772 3.606 1.787s1.456 2.335 1.459 3.706c0 1.469-0.593 2.878-1.647 3.917s-2.486 1.623-3.978 1.624h-18.125c-0.332 0-0.649 0.13-0.884 0.36s-0.366 0.544-0.366 0.87c0 0.326 0.132 0.639 0.366 0.87s0.552 0.36 0.884 0.36h18.125c2.12-0.051 4.136-0.916 5.617-2.41s2.311-3.499 2.311-5.587-0.828-4.094-2.308-5.589c-1.48-1.495-3.496-2.361-5.616-2.414zM33.75 11.077c-1.658 0-3.247 0.648-4.419 1.802s-1.831 2.719-1.831 4.351c0 0.326 0.132 0.639 0.366 0.87s0.552 0.36 0.884 0.36 0.649-0.13 0.884-0.36c0.235-0.231 0.366-0.544 0.366-0.87 0-0.73 0.22-1.444 0.632-2.051s0.998-1.080 1.683-1.36c0.685-0.279 1.439-0.353 2.167-0.21s1.396 0.494 1.92 1.011c0.524 0.516 0.882 1.174 1.026 1.891s0.070 1.459-0.213 2.133-0.765 1.251-1.381 1.657c-0.617 0.406-1.342 0.622-2.083 0.622h-32.5c-0.332 0-0.649 0.13-0.884 0.361s-0.366 0.544-0.366 0.87c0 0.326 0.132 0.64 0.366 0.87s0.552 0.36 0.884 0.36h24.375c0.829 0.002 1.623 0.327 2.208 0.906s0.913 1.361 0.911 2.177c-0.002 0.816-0.333 1.598-0.92 2.174s-1.383 0.898-2.212 0.897c-0.746 0.001-1.469-0.259-2.040-0.733s-0.952-1.132-1.078-1.856l-0.012-0.074c-0.023-0.163-0.078-0.32-0.163-0.462s-0.199-0.265-0.333-0.363-0.288-0.168-0.451-0.206c-0.163-0.039-0.332-0.044-0.497-0.017s-0.323 0.086-0.464 0.175c-0.141 0.088-0.263 0.204-0.358 0.339s-0.162 0.288-0.196 0.45c-0.034 0.161-0.035 0.328-0.003 0.489l0.013 0.074c0.222 1.299 0.905 2.479 1.927 3.33s2.317 1.317 3.655 1.317c1.493 0.001 2.926-0.582 3.983-1.621s1.652-2.447 1.655-3.918c0-1.14-0.35-2.198-0.947-3.077h3.447c1.658 0 3.247-0.648 4.419-1.802s1.831-2.719 1.831-4.351-0.658-3.197-1.831-4.351c-1.172-1.154-2.762-1.802-4.419-1.802z"></path>
<path d="M19.38 0l0.247-9.997-0.125-0.003-0.125 0 0.002 10zM11.42 6.425l-9.799-1.994-0.003 0.016 9.803 1.978zM11.275 7.143l9.724 2.331 0.042-0.176 0.036-0.178-9.803-1.978zM13.725 7.626l-9.794-2.017-0.038 0.184-0.031 0.185 9.863 1.647zM13.873 6.91v0zM25 7.998h10v-0.025l-10 0.025zM19.375 13.538v10h0.004l-0.004-10zM0 14.769v0zM19.375 16v10h0.121l0.121-0.003-0.241-9.997zM30 17.231v0zM0 22.154v0zM25.625 23.385l0.020-10h-0.020v10zM25.612 29.538l0.020-10-0.027 0 0.007 10zM22.495 26.949l-9.86 1.669 0.003 0.017 0.003 0.017 9.854-1.703zM22.483 26.875l-9.907 1.363 0.021 0.153 0.026 0.152 9.86-1.669zM20.017 27.279l9.86-1.669-0.025-0.149-0.030-0.148-9.805 1.966zM20.030 27.353l-9.86 1.669 0.003 0.017 9.857-1.686zM25.612 32l0.004-10h-0.006l0.002 10zM31.25 26.462l10 0.018v-0.018h-10zM30.303 23.385v-10h-18.892l10.622 15.623 8.27-5.623zM19.378-10c-4.146 0.001-8.183 1.414-11.424 4.030l12.561 15.563c-0.339 0.273-0.74 0.406-1.133 0.406l-0.004-20zM7.953-5.97c-3.244 2.618-5.496 6.287-6.333 10.401l19.598 3.988c-0.1 0.49-0.362 0.899-0.704 1.175l-12.561-15.563zM1.617 4.447l-0.145 0.719 19.605 3.955 0.145-0.719-19.605-3.955zM1.551 4.812c-0.356 1.485-0.405 3.028-0.143 4.534l19.705-3.425c0.205 1.18 0.167 2.39-0.112 3.553l-19.449-4.663zM1.407 9.346c0.262 1.506 0.827 2.936 1.656 4.207l16.753-10.925c0.648 0.993 1.091 2.112 1.296 3.293l-19.705 3.425zM3.063 13.553c0.829 1.271 1.901 2.353 3.148 3.19l11.152-16.602c0.969 0.651 1.806 1.494 2.453 2.487l-16.753 10.925zM6.211 16.744c1.246 0.837 2.642 1.413 4.103 1.701l3.864-19.623c1.133 0.223 2.216 0.67 3.185 1.32l-11.152 16.602zM10.314 18.445c1.461 0.288 2.966 0.283 4.425-0.014l-3.99-19.598c1.131-0.23 2.296-0.234 3.429-0.011l-3.864 19.623zM14.74 18.43c1.46-0.297 2.852-0.882 4.093-1.727l-11.259-16.53c0.965-0.657 2.045-1.111 3.177-1.341l3.99 19.598zM18.832 16.703c1.241-0.845 2.307-1.935 3.127-3.211l-16.824-10.815c0.641-0.997 1.472-1.846 2.437-2.503l11.259 16.53zM21.96 13.492c0.821-1.277 1.377-2.711 1.629-4.219l-19.727-3.295c0.197-1.181 0.633-2.304 1.274-3.302l16.824 10.815zM23.52 9.643l0.147-0.716-19.589-4.034-0.147 0.716 19.589 4.034zM23.666 8.93c-0.232 1.123-0.871 2.083-1.745 2.719l-11.756-16.18c-3.115 2.263-5.301 5.611-6.087 9.421l19.587 4.041zM21.921 11.649c-0.87 0.632-1.924 0.91-2.959 0.808l1.946-19.905c-3.805-0.372-7.632 0.656-10.743 2.916l11.756 16.18zM18.962 12.457c-1.036-0.101-2.029-0.58-2.773-1.387l14.704-13.557c-2.615-2.837-6.178-4.589-9.985-4.961l-1.946 19.905zM16.189 11.070c-0.748-0.811-1.186-1.895-1.189-3.048l20-0.050c-0.010-3.894-1.488-7.619-4.107-10.46l-14.704 13.557zM15 7.998c0-1.233 0.499-2.383 1.335-3.207l14.035 14.248c2.946-2.902 4.63-6.87 4.63-11.041h-20zM16.335 4.791c0.831-0.819 1.926-1.252 3.036-1.252l0.009 20c4.094-0.002 8.050-1.603 10.991-4.5l-14.035-14.248zM19.375 3.538h-18.125v20h18.125v-20zM1.25 3.538c-2.934 0-5.779 1.146-7.9 3.235l14.032 14.251c-1.652 1.627-3.861 2.514-6.132 2.514v-20zM-6.65 6.773c-2.127 2.094-3.35 4.967-3.35 7.996h20c0 2.376-0.96 4.623-2.618 6.255l-14.032-14.251zM-10 14.769c0 3.029 1.224 5.902 3.35 7.996l14.032-14.251c1.658 1.632 2.618 3.879 2.618 6.255h-20zM-6.65 22.765c2.121 2.089 4.966 3.235 7.9 3.235v-20c2.271 0 4.48 0.887 6.132 2.514l-14.032 14.251zM1.25 26h18.125v-20h-18.125v20zM19.616 25.997c4.68-0.113 9.161-2.022 12.478-5.367l-14.203-14.081c0.354-0.357 0.803-0.536 1.244-0.546l0.482 19.994zM32.094 20.63c3.321-3.35 5.208-7.878 5.21-12.624l-20-0.006c0-0.571 0.228-1.088 0.587-1.45l14.203 14.081zM37.303 8.006c0.002-4.747-1.883-9.276-5.202-12.628l-14.212 14.072c-0.358-0.362-0.586-0.88-0.586-1.45l20 0.006zM32.102-4.622c-3.314-3.347-7.794-5.259-12.474-5.375l-0.494 19.994c-0.44-0.011-0.89-0.19-1.243-0.547l14.212-14.072zM33.75 1.077c-4.26 0-8.376 1.665-11.435 4.677l14.032 14.251c-0.715 0.704-1.652 1.072-2.597 1.072v-20zM22.315 5.754c-3.064 3.017-4.815 7.142-4.815 11.477h20c0 1.071-0.433 2.065-1.153 2.774l-14.032-14.251zM17.5 17.231c0 3.029 1.224 5.902 3.35 7.996l14.032-14.251c1.658 1.632 2.618 3.879 2.618 6.255h-20zM20.85 25.227c2.121 2.089 4.966 3.235 7.9 3.235v-20c2.271 0 4.48 0.887 6.132 2.514l-14.032 14.251zM28.75 28.462c2.934 0 5.779-1.146 7.9-3.235l-14.032-14.251c1.652-1.627 3.861-2.514 6.132-2.514v20zM36.65 25.227c2.126-2.094 3.35-4.967 3.35-7.996h-20c0-2.376 0.96-4.623 2.618-6.255l14.032 14.251zM40 17.231c0 1.282-0.387 2.523-1.093 3.564l-16.549-11.231c-1.531 2.255-2.357 4.924-2.357 7.667h20zM38.907 20.795c-0.705 1.039-1.691 1.826-2.815 2.284l-7.553-18.519c-2.495 1.017-4.652 2.751-6.181 5.004l16.549 11.231zM36.091 23.079c-1.123 0.458-2.35 0.575-3.532 0.344l3.844-19.627c-2.637-0.516-5.372-0.253-7.865 0.764l7.553 18.519zM32.56 23.423c-1.183-0.232-2.29-0.807-3.174-1.677l14.032-14.251c-1.933-1.903-4.376-3.182-7.014-3.698l-3.844 19.627zM29.386 21.746c-0.885-0.872-1.506-2.002-1.76-3.255l19.604-3.96c-0.543-2.686-1.878-5.131-3.812-7.036l-14.032 14.251zM27.626 18.491c-0.253-1.254-0.122-2.553 0.371-3.725l18.435 7.755c1.060-2.521 1.341-5.304 0.798-7.991l-19.604 3.96zM27.997 14.766c0.492-1.17 1.315-2.145 2.34-2.819l10.992 16.708c2.259-1.486 4.043-3.614 5.103-6.134l-18.435-7.755zM30.337 11.947c1.024-0.673 2.211-1.024 3.413-1.024v20c2.685 0 5.323-0.783 7.58-2.268l-10.992-16.708zM33.75 10.923h-32.5v20h32.5v-20zM1.25 10.923c-2.934 0-5.779 1.146-7.9 3.235l14.032 14.251c-1.652 1.627-3.861 2.514-6.132 2.514v-20zM-6.65 14.158c-2.127 2.094-3.35 4.967-3.35 7.996h20c0 2.376-0.96 4.623-2.618 6.255l-14.032-14.251zM-10 22.154c0 3.029 1.224 5.902 3.35 7.996l14.032-14.251c1.658 1.632 2.618 3.879 2.618 6.255h-20zM-6.65 30.15c2.121 2.089 4.966 3.235 7.9 3.235v-20c2.271 0 4.48 0.887 6.132 2.514l-14.032 14.251zM1.25 33.385h24.375v-20h-24.375v20zM25.605 33.385c-1.774-0.003-3.504-0.699-4.803-1.983l14.061-14.223c-2.468-2.44-5.787-3.787-9.219-3.794l-0.039 20zM20.803 31.402c-1.304-1.289-2.063-3.068-2.059-4.954l20 0.041c0.007-3.519-1.407-6.864-3.881-9.309l-14.061 14.223zM18.744 26.447c0.004-1.887 0.77-3.662 2.078-4.945l14.004 14.279c2.483-2.435 3.911-5.775 3.918-9.293l-20-0.041zM20.822 21.502c1.303-1.278 3.036-1.967 4.81-1.964l-0.039 20c3.431 0.007 6.755-1.327 9.233-3.757l-14.004-14.279zM25.605 19.538c1.573-0.001 3.118 0.545 4.357 1.574l-12.779 15.385c2.38 1.977 5.37 3.043 8.437 3.041l-0.014-20zM29.962 21.113c1.243 1.032 2.103 2.491 2.387 4.133l-19.708 3.405c0.534 3.092 2.158 5.866 4.542 7.846l12.779-15.385zM32.355 25.28l-0.013-0.074-19.719 3.338 0.012 0.074 19.72-3.338zM32.389 25.512c-0.208-1.51-0.721-2.957-1.502-4.255l-17.136 10.313c-0.61-1.014-1.012-2.147-1.175-3.331l19.813-2.727zM30.887 21.257c-0.781-1.297-1.812-2.416-3.024-3.297l-11.755 16.181c-0.943-0.685-1.747-1.557-2.357-2.571l17.136-10.313zM27.863 17.959c-1.212-0.88-2.583-1.507-4.030-1.848l-4.597 19.465c-1.121-0.265-2.186-0.75-3.128-1.435l11.755-16.181zM23.834 16.111c-1.446-0.342-2.946-0.394-4.411-0.154l3.232 19.737c-1.135 0.186-2.297 0.146-3.418-0.119l4.597-19.465zM19.423 15.958c-1.466 0.24-2.875 0.768-4.144 1.56l10.591 16.966c-0.986 0.616-2.080 1.025-3.215 1.211l-3.232-19.737zM15.279 17.518c-1.269 0.792-2.374 1.834-3.243 3.070l16.361 11.503c-0.679 0.966-1.54 1.777-2.527 2.392l-10.591-16.966zM12.036 20.588c-0.87 1.237-1.484 2.641-1.799 4.132l19.567 4.138c-0.247 1.168-0.728 2.267-1.407 3.233l-16.361-11.503zM10.236 24.721c-0.315 1.491-0.323 3.030-0.024 4.525l19.609-3.933c0.235 1.171 0.229 2.378-0.018 3.546l-19.567-4.138zM10.158 28.948l0.012 0.074 19.72-3.338-0.013-0.074-19.719 3.338zM10.173 29.039c0.628 3.67 2.551 6.969 5.386 9.33l12.796-15.371c0.791 0.659 1.349 1.598 1.532 2.669l-19.714 3.372zM15.559 38.368c2.832 2.357 6.395 3.633 10.055 3.632l-0.004-20c0.983-0 1.957 0.342 2.744 0.997l-12.796 15.371zM25.608 42c4.093 0.002 8.051-1.595 10.995-4.487l-14.016-14.267c0.83-0.816 1.923-1.246 3.030-1.246l-0.009 20zM36.603 37.513c2.95-2.898 4.639-6.863 4.647-11.033l-20-0.036c0.002-1.23 0.502-2.377 1.337-3.198l14.016 14.267zM41.25 26.462c0-3.221-0.996-6.226-2.678-8.7l-16.539 11.245c-0.487-0.716-0.783-1.605-0.783-2.546h20zM30.303 33.385h3.447v-20h-3.447v20zM33.75 33.385c4.26 0 8.376-1.665 11.435-4.677l-14.032-14.251c0.715-0.704 1.652-1.072 2.597-1.072v20zM45.185 28.708c3.064-3.017 4.815-7.142 4.815-11.477h-20c0-1.071 0.433-2.065 1.153-2.774l14.032 14.251zM50 17.231c0-4.335-1.75-8.46-4.815-11.477l-14.032 14.251c-0.72-0.709-1.153-1.704-1.153-2.774h20zM45.185 5.754c-3.059-3.012-7.175-4.677-11.435-4.677v20c-0.945 0-1.882-0.368-2.597-1.072l14.032-14.251z"></path>
</symbol>
<symbol id="icon-adults" viewBox="0 0 32 32">
<path d="M9.067 24.133h-4.4c-0.267 0-0.4-0.133-0.533-0.267s-0.267-0.4-0.133-0.667c0.8-2.267 2.8-3.6 5.067-3.6 2.8 0 5.067-2.4 5.067-5.2s-2.267-5.467-5.067-5.467c-2.8 0-5.067 2.4-5.067 5.333 0 1.333 0.533 2.667 1.333 3.6-1.733 0.933-3.067 2.4-3.867 4.4-0.267 0.933-0.133 2.133 0.533 3.067s1.6 1.467 2.667 1.467h4.4c0.8 0 1.333-0.533 1.333-1.333s-0.533-1.333-1.333-1.333zM6.667 14.267c0-1.467 1.067-2.533 2.4-2.533s2.4 1.2 2.4 2.533c0 1.467-1.067 2.533-2.4 2.533s-2.4-1.2-2.4-2.533z"></path>
<path d="M30.533 21.467c-0.933-2.533-2.8-4.4-4.933-5.467 1.2-1.067 1.867-2.667 1.867-4.533 0-3.467-2.667-6.267-5.867-6.267s-5.867 2.8-5.867 6.267c0 1.733 0.667 3.333 1.867 4.533-2.133 1.067-4 2.933-4.933 5.467-0.667 1.2-0.4 2.533 0.267 3.6s1.867 1.6 3.067 1.6h11.067c1.2 0 2.4-0.667 3.067-1.6 0.8-1.067 0.933-2.4 0.4-3.6zM18.267 11.6c0-2 1.467-3.6 3.2-3.6s3.2 1.6 3.2 3.6-1.467 3.6-3.2 3.6c-1.733 0-3.2-1.733-3.2-3.6zM27.867 23.6c-0.133 0.133-0.4 0.533-0.8 0.533h-11.067c-0.533 0-0.8-0.4-0.8-0.533-0.133-0.133-0.4-0.667-0.133-1.2 1.067-2.8 3.733-4.667 6.533-4.667s5.467 1.867 6.533 4.667c0.133 0.533-0.133 1.067-0.267 1.2z"></path>
</symbol>
<symbol id="icon-air-conditioner" viewBox="0 0 32 32">
<path stroke-linejoin="round" stroke-linecap="round" stroke-miterlimit="4" stroke-width="2.4" d="M28.571 1.143h-25.143c-0.606 0-1.188 0.241-1.616 0.669s-0.669 1.010-0.669 1.616v11.429c0 0.606 0.241 1.188 0.669 1.616s1.010 0.669 1.616 0.669h25.143c0.606 0 1.188-0.241 1.616-0.669s0.67-1.010 0.67-1.616v-11.429c0-0.606-0.241-1.188-0.67-1.616s-1.010-0.669-1.616-0.669z"></path>
<path stroke-linejoin="round" stroke-linecap="round" stroke-miterlimit="4" stroke-width="2.4" d="M25.143 17.143v-4.571c0-0.606-0.241-1.188-0.67-1.616s-1.010-0.669-1.616-0.669h-13.714c-0.606 0-1.188 0.241-1.616 0.669s-0.669 1.010-0.669 1.616v4.571M5.714 28.572h0.229c0.849 0 1.663-0.337 2.263-0.937s0.937-1.414 0.937-2.263v-2.514M26.286 28.572h-0.229c-0.849 0-1.663-0.337-2.263-0.937s-0.937-1.414-0.937-2.263v-2.514M16 30.857v-8"></path>
</symbol>
<symbol id="icon-alcove" viewBox="0 0 46 32">
<path d="M2.608 1.8h12.409c0.105 0 0.203-0.040 0.278-0.112l1.192-1.163c0.346-0.338 0.807-0.524 1.297-0.524h18.817c0.876 0 1.69 0.425 2.176 1.136l2.255 3.3c0.32 0.468 0.349 1.067 0.077 1.564s-0.8 0.805-1.377 0.805h-9.698v0.956h4.967c1.317 0 2.501 0.763 3.018 1.945l2.908 6.65 2.548 0.994c1.36 0.531 2.24 1.797 2.24 3.227v6.158c0 0.918-0.766 1.666-1.708 1.666h-2.964c-0.345 2.039-2.164 3.599-4.35 3.599s-4.005-1.561-4.35-3.599h-16.203c-0.345 2.039-2.164 3.599-4.35 3.599s-4.005-1.561-4.35-3.599h-5.921c-0.837 0-1.518-0.664-1.518-1.481v-22.576c0-1.403 1.17-2.544 2.608-2.544zM36.692 30.594c1.637 0 2.969-1.299 2.969-2.896s-1.332-2.896-2.969-2.896c-1.637 0-2.969 1.299-2.969 2.896s1.332 2.896 2.969 2.896zM30.034 26.995h2.307c0.006-0.035 0.013-0.070 0.020-0.105 0.005-0.024 0.009-0.047 0.014-0.071 0.012-0.055 0.025-0.11 0.039-0.164 0.003-0.011 0.005-0.023 0.009-0.034 0.017-0.066 0.036-0.13 0.057-0.195 0.006-0.019 0.013-0.037 0.019-0.056 0.015-0.045 0.031-0.090 0.047-0.134 0.009-0.024 0.018-0.047 0.028-0.071 0.015-0.039 0.030-0.078 0.047-0.116 0.010-0.025 0.022-0.050 0.033-0.075 0.016-0.037 0.032-0.072 0.050-0.108 0.013-0.025 0.025-0.050 0.038-0.075 0.017-0.034 0.036-0.069 0.054-0.103 0.013-0.025 0.027-0.049 0.041-0.074 0.019-0.034 0.039-0.067 0.059-0.101 0.014-0.024 0.029-0.047 0.043-0.071 0.022-0.034 0.044-0.067 0.066-0.101 0.015-0.022 0.029-0.044 0.044-0.065 0.025-0.035 0.051-0.070 0.077-0.105 0.013-0.018 0.026-0.037 0.040-0.055 0.036-0.046 0.072-0.090 0.109-0.135 0.005-0.007 0.010-0.014 0.016-0.020 0.043-0.051 0.087-0.1 0.132-0.148 0.014-0.015 0.028-0.029 0.043-0.044 0.032-0.033 0.063-0.066 0.096-0.099 0.018-0.018 0.038-0.035 0.056-0.053 0.029-0.028 0.059-0.056 0.090-0.084 0.020-0.018 0.041-0.036 0.062-0.054 0.030-0.026 0.060-0.051 0.090-0.077l0.066-0.052c0.031-0.024 0.062-0.048 0.093-0.071 0.022-0.017 0.045-0.034 0.069-0.050 0.032-0.023 0.064-0.045 0.097-0.068 0.023-0.015 0.046-0.031 0.069-0.046 0.034-0.023 0.069-0.044 0.104-0.065 0.022-0.014 0.045-0.028 0.068-0.041 0.038-0.023 0.077-0.044 0.116-0.065 0.020-0.011 0.040-0.023 0.059-0.033 0.056-0.029 0.112-0.057 0.168-0.084 0.005-0.002 0.009-0.004 0.013-0.006 0.061-0.029 0.123-0.056 0.186-0.082 0.020-0.008 0.041-0.016 0.061-0.024 0.043-0.017 0.086-0.034 0.13-0.050 0.025-0.009 0.050-0.017 0.075-0.026 0.040-0.014 0.080-0.027 0.12-0.039 0.027-0.008 0.054-0.016 0.082-0.024 0.039-0.011 0.078-0.023 0.118-0.033 0.028-0.007 0.056-0.015 0.085-0.021 0.039-0.009 0.078-0.018 0.118-0.026 0.029-0.006 0.058-0.012 0.087-0.018 0.040-0.007 0.081-0.015 0.122-0.021 0.029-0.005 0.057-0.010 0.086-0.014 0.042-0.006 0.085-0.011 0.128-0.016 0.027-0.003 0.055-0.007 0.082-0.009 0.047-0.004 0.095-0.008 0.143-0.011 0.024-0.002 0.047-0.004 0.070-0.005 0.072-0.004 0.144-0.006 0.216-0.006s0.144 0.002 0.216 0.006c0.024 0.001 0.047 0.003 0.070 0.005 0.048 0.003 0.096 0.006 0.143 0.011 0.028 0.002 0.055 0.006 0.082 0.009 0.043 0.005 0.086 0.010 0.128 0.016 0.029 0.004 0.058 0.008 0.087 0.014 0.041 0.006 0.081 0.014 0.122 0.021 0.029 0.006 0.058 0.012 0.087 0.018 0.040 0.008 0.079 0.017 0.118 0.026 0.029 0.007 0.057 0.014 0.085 0.021 0.039 0.010 0.078 0.021 0.118 0.033 0.028 0.008 0.055 0.016 0.082 0.024 0.040 0.012 0.080 0.026 0.12 0.039 0.025 0.009 0.050 0.017 0.075 0.026 0.044 0.016 0.087 0.033 0.13 0.050 0.020 0.008 0.041 0.016 0.061 0.024 0.062 0.026 0.125 0.053 0.186 0.082 0.005 0.002 0.009 0.005 0.013 0.006 0.057 0.027 0.112 0.055 0.168 0.084 0.020 0.011 0.039 0.022 0.059 0.033 0.039 0.021 0.078 0.043 0.116 0.065 0.023 0.014 0.045 0.028 0.068 0.041 0.035 0.021 0.070 0.043 0.104 0.065 0.023 0.015 0.046 0.031 0.069 0.046 0.033 0.023 0.065 0.044 0.097 0.068 0.023 0.016 0.046 0.033 0.069 0.050 0.031 0.024 0.062 0.047 0.093 0.071l0.066 0.052c0.031 0.025 0.061 0.051 0.090 0.077 0.021 0.018 0.041 0.036 0.062 0.054 0.031 0.028 0.060 0.056 0.090 0.084 0.018 0.017 0.037 0.035 0.056 0.053 0.033 0.033 0.065 0.066 0.096 0.099 0.014 0.015 0.029 0.029 0.043 0.044 0.045 0.048 0.089 0.098 0.132 0.148 0.006 0.007 0.011 0.014 0.016 0.020 0.037 0.044 0.073 0.089 0.109 0.135 0.014 0.018 0.027 0.037 0.040 0.055 0.026 0.035 0.052 0.070 0.077 0.105 0.015 0.021 0.029 0.043 0.044 0.065 0.022 0.034 0.044 0.067 0.066 0.101 0.014 0.024 0.029 0.047 0.043 0.071 0.020 0.033 0.040 0.067 0.059 0.101 0.014 0.025 0.028 0.049 0.041 0.074 0.018 0.034 0.037 0.069 0.054 0.103 0.013 0.025 0.025 0.050 0.038 0.075 0.017 0.036 0.033 0.071 0.050 0.108 0.011 0.025 0.023 0.049 0.033 0.075 0.017 0.038 0.032 0.077 0.047 0.116 0.010 0.024 0.019 0.047 0.028 0.071 0.016 0.044 0.032 0.089 0.047 0.134 0.006 0.019 0.013 0.038 0.019 0.056 0.020 0.064 0.039 0.129 0.056 0.195 0.003 0.011 0.006 0.023 0.009 0.034 0.014 0.055 0.027 0.109 0.039 0.164 0.005 0.024 0.009 0.047 0.014 0.071 0.007 0.035 0.014 0.069 0.020 0.105h2.963c0.147 0 0.266-0.116 0.266-0.26v-2.946h-1.124v-1.406h1.124v-1.806c0-0.851-0.523-1.606-1.333-1.922l-2.697-1.052h-10.209v9.392zM30.034 16.197h9.257l-2.598-5.939c-0.29-0.662-0.954-1.090-1.692-1.090h-4.967v7.030zM11.789 30.594c1.637 0 2.969-1.299 2.969-2.896s-1.332-2.896-2.969-2.896c-0.051 0-0.102 0.001-0.153 0.004-1.364 0.067-2.488 1.038-2.756 2.309-0.010 0.047-0.019 0.095-0.027 0.143-0.015 0.096-0.025 0.193-0.030 0.291-0.003 0.049-0.004 0.099-0.004 0.149 0 1.597 1.332 2.896 2.969 2.896zM1.441 22.383h1.124v1.406h-1.124v3.131c0 0.041 0.035 0.075 0.077 0.075h5.92c0.006-0.035 0.013-0.069 0.020-0.104 0.005-0.024 0.009-0.048 0.014-0.072 0.012-0.054 0.024-0.107 0.038-0.16 0.003-0.012 0.006-0.025 0.009-0.038 0.017-0.065 0.036-0.129 0.056-0.193 0.006-0.020 0.013-0.039 0.020-0.058 0.015-0.044 0.030-0.089 0.046-0.132 0.009-0.025 0.019-0.048 0.028-0.072 0.015-0.038 0.031-0.077 0.046-0.114 0.011-0.026 0.022-0.051 0.034-0.076 0.016-0.036 0.032-0.071 0.050-0.106 0.012-0.026 0.025-0.051 0.038-0.076 0.017-0.034 0.035-0.068 0.054-0.102 0.014-0.025 0.028-0.049 0.042-0.074 0.020-0.034 0.039-0.067 0.059-0.1 0.014-0.024 0.029-0.048 0.044-0.071 0.021-0.034 0.043-0.067 0.066-0.1 0.014-0.023 0.029-0.045 0.044-0.066 0.025-0.035 0.051-0.070 0.076-0.104 0.014-0.019 0.028-0.038 0.042-0.057 0.035-0.044 0.070-0.088 0.106-0.132 0.006-0.008 0.012-0.016 0.018-0.023 0.043-0.051 0.087-0.1 0.132-0.148 0.014-0.015 0.029-0.030 0.043-0.045 0.032-0.033 0.063-0.066 0.096-0.098 0.018-0.018 0.037-0.035 0.056-0.053 0.029-0.028 0.059-0.056 0.089-0.083 0.020-0.018 0.041-0.036 0.062-0.055 0.029-0.025 0.059-0.051 0.090-0.075 0.022-0.018 0.044-0.036 0.066-0.053 0.030-0.024 0.061-0.047 0.092-0.071 0.022-0.017 0.046-0.034 0.069-0.050 0.032-0.023 0.064-0.045 0.096-0.067 0.024-0.016 0.047-0.031 0.070-0.047 0.034-0.023 0.069-0.044 0.103-0.065 0.023-0.014 0.046-0.028 0.069-0.042 0.038-0.023 0.077-0.044 0.116-0.065 0.020-0.011 0.040-0.023 0.061-0.033 0.055-0.029 0.11-0.057 0.167-0.083 0.005-0.002 0.009-0.005 0.014-0.007 0.061-0.029 0.123-0.056 0.186-0.082 0.020-0.008 0.041-0.016 0.061-0.024 0.043-0.017 0.086-0.034 0.13-0.050 0.025-0.009 0.050-0.017 0.076-0.026 0.039-0.014 0.079-0.027 0.119-0.039 0.027-0.008 0.055-0.016 0.082-0.024 0.039-0.011 0.078-0.023 0.118-0.033 0.028-0.007 0.056-0.015 0.085-0.021 0.039-0.009 0.078-0.018 0.118-0.026 0.029-0.006 0.058-0.012 0.087-0.018 0.040-0.007 0.081-0.015 0.122-0.021 0.029-0.005 0.057-0.010 0.086-0.014 0.042-0.006 0.085-0.011 0.128-0.016 0.027-0.003 0.055-0.007 0.082-0.009 0.047-0.004 0.095-0.008 0.143-0.011 0.024-0.002 0.047-0.004 0.070-0.005 0.072-0.004 0.144-0.006 0.216-0.006s0.144 0.002 0.216 0.006c0.024 0.001 0.047 0.003 0.070 0.005 0.048 0.003 0.096 0.006 0.143 0.011 0.028 0.002 0.055 0.006 0.082 0.009 0.043 0.005 0.086 0.010 0.128 0.016 0.029 0.004 0.058 0.008 0.086 0.014 0.041 0.006 0.081 0.014 0.122 0.021 0.029 0.006 0.058 0.012 0.087 0.018 0.040 0.008 0.079 0.017 0.118 0.026 0.029 0.007 0.057 0.014 0.085 0.021 0.039 0.010 0.078 0.021 0.118 0.033 0.027 0.008 0.055 0.016 0.082 0.024 0.040 0.012 0.080 0.026 0.119 0.039 0.025 0.009 0.051 0.017 0.076 0.026 0.044 0.016 0.086 0.033 0.13 0.050 0.020 0.008 0.041 0.016 0.061 0.024 0.062 0.026 0.124 0.053 0.186 0.082 0.005 0.002 0.010 0.005 0.014 0.007 0.056 0.026 0.112 0.054 0.167 0.083 0.021 0.011 0.040 0.022 0.060 0.033 0.039 0.021 0.078 0.043 0.116 0.065 0.023 0.014 0.046 0.028 0.069 0.042 0.035 0.021 0.069 0.042 0.103 0.065 0.023 0.015 0.046 0.031 0.070 0.047 0.032 0.022 0.065 0.044 0.096 0.067 0.023 0.016 0.046 0.033 0.069 0.050 0.031 0.024 0.062 0.047 0.092 0.071 0.023 0.017 0.044 0.035 0.066 0.053 0.031 0.025 0.061 0.050 0.090 0.076 0.021 0.018 0.042 0.036 0.062 0.054 0.030 0.028 0.060 0.056 0.090 0.084 0.018 0.017 0.037 0.035 0.056 0.053 0.032 0.032 0.065 0.065 0.096 0.098 0.014 0.015 0.029 0.029 0.043 0.044 0.045 0.048 0.089 0.098 0.132 0.148 0.006 0.007 0.012 0.015 0.017 0.021 0.036 0.044 0.073 0.088 0.107 0.134 0.014 0.018 0.028 0.037 0.042 0.055 0.026 0.035 0.052 0.070 0.077 0.105 0.015 0.021 0.029 0.044 0.044 0.066 0.023 0.033 0.044 0.066 0.066 0.1 0.015 0.024 0.029 0.047 0.044 0.071 0.020 0.033 0.040 0.067 0.059 0.101 0.014 0.025 0.028 0.049 0.041 0.074 0.019 0.034 0.037 0.069 0.055 0.103 0.013 0.025 0.025 0.050 0.037 0.075 0.017 0.036 0.034 0.072 0.050 0.108 0.012 0.025 0.023 0.049 0.033 0.075 0.017 0.038 0.032 0.077 0.047 0.116 0.009 0.024 0.018 0.047 0.028 0.071 0.017 0.045 0.032 0.090 0.047 0.135 0.006 0.019 0.013 0.037 0.019 0.055 0.020 0.064 0.039 0.129 0.057 0.195 0.002 0.010 0.005 0.021 0.007 0.031 0.014 0.056 0.028 0.111 0.040 0.168 0.005 0.023 0.009 0.046 0.013 0.069 0.007 0.035 0.014 0.070 0.021 0.106h12.453v-20.893c0-0.388 0.323-0.703 0.721-0.703h10.419c0.018 0 0.073 0 0.107-0.062s0.004-0.106-0.006-0.12l-2.255-3.3c-0.218-0.319-0.583-0.51-0.977-0.51h-18.817c-0.105 0-0.204 0.040-0.278 0.112l-1.192 1.163c-0.346 0.338-0.807 0.524-1.297 0.524h-12.409c-0.643 0-1.167 0.511-1.167 1.138v18.039z"></path>
<path d="M20.116 7.198h4.558c0.921 0 1.67 0.731 1.67 1.629v15.046c0 0.388-0.323 0.703-0.721 0.703h-6.456c-0.398 0-0.721-0.315-0.721-0.703v-15.046c-0.001-0.899 0.748-1.629 1.669-1.629zM19.887 23.17h5.015v-8.267h-5.015v8.267zM19.887 13.497h5.015v-4.669c0-0.123-0.103-0.223-0.229-0.223h-4.558c-0.126 0-0.229 0.1-0.229 0.223v4.669h0.001zM5.536 7.198h8.814c1.019 0 1.848 0.809 1.848 1.802v4.1c0 0.994-0.829 1.802-1.848 1.802h-8.815c-1.019 0-1.848-0.809-1.848-1.802v-4.1c0.001-0.994 0.83-1.802 1.848-1.802zM5.129 13.1c0 0.218 0.182 0.396 0.406 0.396h8.814c0.224 0 0.406-0.178 0.406-0.396v-4.1c0-0.218-0.182-0.396-0.406-0.396h-8.815c-0.224 0-0.406 0.178-0.406 0.396v4.1h0.001z"></path>
</symbol>
<symbol id="icon-automatic" viewBox="0 0 32 32">
<path stroke-linejoin="round" stroke-linecap="round" stroke-miterlimit="4" stroke-width="2.4" d="M22.667 14.667h2c0.53 0 1.039-0.211 1.414-0.586s0.586-0.884 0.586-1.414-0.211-1.039-0.586-1.414c-0.375-0.375-0.884-0.586-1.414-0.586h-2v6.667M22.667 22.667v5.333h1.333c0.707 0 1.386-0.281 1.886-0.781s0.781-1.178 0.781-1.886c0-0.707-0.281-1.385-0.781-1.886s-1.178-0.781-1.886-0.781h-1.333zM4 6.667c0 0.707 0.281 1.386 0.781 1.886s1.178 0.781 1.886 0.781c0.707 0 1.386-0.281 1.886-0.781s0.781-1.178 0.781-1.886c0-0.707-0.281-1.386-0.781-1.886s-1.178-0.781-1.886-0.781c-0.707 0-1.386 0.281-1.886 0.781s-0.781 1.178-0.781 1.886z"></path>
<path stroke-linejoin="round" stroke-linecap="round" stroke-miterlimit="4" stroke-width="2.4" d="M6.667 9.333v4c0 0.354 0.14 0.693 0.391 0.943s0.589 0.391 0.943 0.391h4M12 14.667v9.333c0 0.354 0.14 0.693 0.391 0.943s0.589 0.39 0.943 0.39h4M12 14.667h5.333"></path>
</symbol>
<symbol id="icon-bed" viewBox="0 0 32 32">
<path stroke-linejoin="round" stroke-linecap="round" stroke-miterlimit="4" stroke-width="2.24" d="M3 26v-7c0.003-1.060 0.426-2.076 1.175-2.825s1.765-1.172 2.825-1.175h18c1.060 0.003 2.076 0.426 2.825 1.175s1.172 1.765 1.175 2.825v7M24 15h-18v-6.5c0.002-0.662 0.266-1.297 0.734-1.766s1.103-0.732 1.766-0.734h15c0.662 0.002 1.297 0.266 1.766 0.734s0.732 1.103 0.734 1.766v6.5h-2z"></path>
<path stroke-linejoin="round" stroke-linecap="round" stroke-miterlimit="4" stroke-width="2.24" d="M3 26v-0.5c0.001-0.397 0.16-0.778 0.441-1.059s0.662-0.44 1.059-0.441h23c0.397 0.001 0.778 0.16 1.059 0.441s0.44 0.662 0.441 1.059v0.5M7 15v-1c0.002-0.53 0.213-1.038 0.587-1.413s0.883-0.586 1.413-0.587h5c0.53 0.002 1.038 0.213 1.413 0.587s0.586 0.883 0.587 1.413M16 14v1M16 14c0.001-0.53 0.213-1.038 0.587-1.413s0.883-0.586 1.413-0.587h5c0.53 0.002 1.038 0.213 1.413 0.587s0.586 0.883 0.587 1.413v1"></path>
</symbol>
<symbol id="icon-button" viewBox="0 0 46 32">
<path d="M2.608 1.8h12.409c0.105 0 0.203-0.040 0.278-0.112l1.192-1.163c0.346-0.338 0.807-0.524 1.297-0.524h18.817c0.876 0 1.69 0.425 2.176 1.136l2.255 3.3c0.32 0.468 0.349 1.067 0.077 1.564s-0.8 0.805-1.377 0.805h-9.698v0.956h4.967c1.317 0 2.501 0.763 3.018 1.945l2.908 6.65 2.548 0.994c1.36 0.531 2.24 1.797 2.24 3.227v6.158c0 0.918-0.766 1.666-1.708 1.666h-2.964c-0.345 2.039-2.164 3.599-4.35 3.599s-4.005-1.561-4.35-3.599h-16.203c-0.345 2.039-2.164 3.599-4.35 3.599s-4.005-1.561-4.35-3.599h-5.921c-0.837 0-1.518-0.664-1.518-1.481v-22.576c0-1.403 1.17-2.544 2.608-2.544zM36.692 30.594c1.637 0 2.969-1.299 2.969-2.896s-1.332-2.896-2.969-2.896c-1.637 0-2.969 1.299-2.969 2.896s1.332 2.896 2.969 2.896zM30.034 26.995h2.307c0.006-0.035 0.013-0.070 0.020-0.105 0.005-0.024 0.009-0.047 0.014-0.071 0.012-0.055 0.025-0.11 0.039-0.164 0.003-0.011 0.005-0.023 0.009-0.034 0.017-0.066 0.036-0.13 0.057-0.195 0.006-0.019 0.013-0.037 0.019-0.056 0.015-0.045 0.031-0.090 0.047-0.134 0.009-0.024 0.018-0.047 0.028-0.071 0.015-0.039 0.030-0.078 0.047-0.116 0.010-0.025 0.022-0.050 0.033-0.075 0.016-0.037 0.032-0.072 0.050-0.108 0.013-0.025 0.025-0.050 0.038-0.075 0.017-0.034 0.036-0.069 0.054-0.103 0.013-0.025 0.027-0.049 0.041-0.074 0.019-0.034 0.039-0.067 0.059-0.101 0.014-0.024 0.029-0.047 0.043-0.071 0.022-0.034 0.044-0.067 0.066-0.101 0.015-0.022 0.029-0.044 0.044-0.065 0.025-0.035 0.051-0.070 0.077-0.105 0.013-0.018 0.026-0.037 0.040-0.055 0.036-0.046 0.072-0.090 0.109-0.135 0.005-0.007 0.010-0.014 0.016-0.020 0.043-0.051 0.087-0.1 0.132-0.148 0.014-0.015 0.028-0.029 0.043-0.044 0.032-0.033 0.063-0.066 0.096-0.099 0.018-0.018 0.038-0.035 0.056-0.053 0.029-0.028 0.059-0.056 0.090-0.084 0.020-0.018 0.041-0.036 0.062-0.054 0.030-0.026 0.060-0.051 0.090-0.077l0.066-0.052c0.031-0.024 0.062-0.048 0.093-0.071 0.022-0.017 0.045-0.034 0.069-0.050 0.032-0.023 0.064-0.045 0.097-0.068 0.023-0.015 0.046-0.031 0.069-0.046 0.034-0.023 0.069-0.044 0.104-0.065 0.022-0.014 0.045-0.028 0.068-0.041 0.038-0.023 0.077-0.044 0.116-0.065 0.020-0.011 0.040-0.023 0.059-0.033 0.056-0.029 0.112-0.057 0.168-0.084 0.005-0.002 0.009-0.004 0.013-0.006 0.061-0.029 0.123-0.056 0.186-0.082 0.020-0.008 0.041-0.016 0.061-0.024 0.043-0.017 0.086-0.034 0.13-0.050 0.025-0.009 0.050-0.017 0.075-0.026 0.040-0.014 0.080-0.027 0.12-0.039 0.027-0.008 0.054-0.016 0.082-0.024 0.039-0.011 0.078-0.023 0.118-0.033 0.028-0.007 0.056-0.015 0.085-0.021 0.039-0.009 0.078-0.018 0.118-0.026 0.029-0.006 0.058-0.012 0.087-0.018 0.040-0.007 0.081-0.015 0.122-0.021 0.029-0.005 0.057-0.010 0.086-0.014 0.042-0.006 0.085-0.011 0.128-0.016 0.027-0.003 0.055-0.007 0.082-0.009 0.047-0.004 0.095-0.008 0.143-0.011 0.024-0.002 0.047-0.004 0.070-0.005 0.072-0.004 0.144-0.006 0.216-0.006s0.144 0.002 0.216 0.006c0.024 0.001 0.047 0.003 0.070 0.005 0.048 0.003 0.096 0.006 0.143 0.011 0.028 0.002 0.055 0.006 0.082 0.009 0.043 0.005 0.086 0.010 0.128 0.016 0.029 0.004 0.058 0.008 0.087 0.014 0.041 0.006 0.081 0.014 0.122 0.021 0.029 0.006 0.058 0.012 0.087 0.018 0.040 0.008 0.079 0.017 0.118 0.026 0.029 0.007 0.057 0.014 0.085 0.021 0.039 0.010 0.078 0.021 0.118 0.033 0.028 0.008 0.055 0.016 0.082 0.024 0.040 0.012 0.080 0.026 0.12 0.039 0.025 0.009 0.050 0.017 0.075 0.026 0.044 0.016 0.087 0.033 0.13 0.050 0.020 0.008 0.041 0.016 0.061 0.024 0.062 0.026 0.125 0.053 0.186 0.082 0.005 0.002 0.009 0.005 0.013 0.006 0.057 0.027 0.112 0.055 0.168 0.084 0.020 0.011 0.039 0.022 0.059 0.033 0.039 0.021 0.078 0.043 0.116 0.065 0.023 0.014 0.045 0.028 0.068 0.041 0.035 0.021 0.070 0.043 0.104 0.065 0.023 0.015 0.046 0.031 0.069 0.046 0.033 0.023 0.065 0.044 0.097 0.068 0.023 0.016 0.046 0.033 0.069 0.050 0.031 0.024 0.062 0.047 0.093 0.071l0.066 0.052c0.031 0.025 0.061 0.051 0.090 0.077 0.021 0.018 0.041 0.036 0.062 0.054 0.031 0.028 0.060 0.056 0.090 0.084 0.018 0.017 0.037 0.035 0.056 0.053 0.033 0.033 0.065 0.066 0.096 0.099 0.014 0.015 0.029 0.029 0.043 0.044 0.045 0.048 0.089 0.098 0.132 0.148 0.006 0.007 0.011 0.014 0.016 0.020 0.037 0.044 0.073 0.089 0.109 0.135 0.014 0.018 0.027 0.037 0.040 0.055 0.026 0.035 0.052 0.070 0.077 0.105 0.015 0.021 0.029 0.043 0.044 0.065 0.022 0.034 0.044 0.067 0.066 0.101 0.014 0.024 0.029 0.047 0.043 0.071 0.020 0.033 0.040 0.067 0.059 0.101 0.014 0.025 0.028 0.049 0.041 0.074 0.018 0.034 0.037 0.069 0.054 0.103 0.013 0.025 0.025 0.050 0.038 0.075 0.017 0.036 0.033 0.071 0.050 0.108 0.011 0.025 0.023 0.049 0.033 0.075 0.017 0.038 0.032 0.077 0.047 0.116 0.010 0.024 0.019 0.047 0.028 0.071 0.016 0.044 0.032 0.089 0.047 0.134 0.006 0.019 0.013 0.038 0.019 0.056 0.020 0.064 0.039 0.129 0.056 0.195 0.003 0.011 0.006 0.023 0.009 0.034 0.014 0.055 0.027 0.109 0.039 0.164 0.005 0.024 0.009 0.047 0.014 0.071 0.007 0.035 0.014 0.069 0.020 0.105h2.963c0.147 0 0.266-0.116 0.266-0.26v-2.946h-1.124v-1.406h1.124v-1.806c0-0.851-0.523-1.606-1.333-1.922l-2.697-1.052h-10.209v9.392zM30.034 16.197h9.257l-2.598-5.939c-0.29-0.662-0.954-1.090-1.692-1.090h-4.967v7.030zM11.789 30.594c1.637 0 2.969-1.299 2.969-2.896s-1.332-2.896-2.969-2.896c-0.051 0-0.102 0.001-0.153 0.004-1.364 0.067-2.488 1.038-2.756 2.309-0.010 0.047-0.019 0.095-0.027 0.143-0.015 0.096-0.025 0.193-0.030 0.291-0.003 0.049-0.004 0.099-0.004 0.149 0 1.597 1.332 2.896 2.969 2.896zM1.441 22.383h1.124v1.406h-1.124v3.131c0 0.041 0.035 0.075 0.077 0.075h5.92c0.006-0.035 0.013-0.069 0.020-0.104 0.005-0.024 0.009-0.048 0.014-0.072 0.012-0.054 0.024-0.107 0.038-0.16 0.003-0.012 0.006-0.025 0.009-0.038 0.017-0.065 0.036-0.129 0.056-0.193 0.006-0.020 0.013-0.039 0.020-0.058 0.015-0.044 0.030-0.089 0.046-0.132 0.009-0.025 0.019-0.048 0.028-0.072 0.015-0.038 0.031-0.077 0.046-0.114 0.011-0.026 0.022-0.051 0.034-0.076 0.016-0.036 0.032-0.071 0.050-0.106 0.012-0.026 0.025-0.051 0.038-0.076 0.017-0.034 0.035-0.068 0.054-0.102 0.014-0.025 0.028-0.049 0.042-0.074 0.020-0.034 0.039-0.067 0.059-0.1 0.014-0.024 0.029-0.048 0.044-0.071 0.021-0.034 0.043-0.067 0.066-0.1 0.014-0.023 0.029-0.045 0.044-0.066 0.025-0.035 0.051-0.070 0.076-0.104 0.014-0.019 0.028-0.038 0.042-0.057 0.035-0.044 0.070-0.088 0.106-0.132 0.006-0.008 0.012-0.016 0.018-0.023 0.043-0.051 0.087-0.1 0.132-0.148 0.014-0.015 0.029-0.030 0.043-0.045 0.032-0.033 0.063-0.066 0.096-0.098 0.018-0.018 0.037-0.035 0.056-0.053 0.029-0.028 0.059-0.056 0.089-0.083 0.020-0.018 0.041-0.036 0.062-0.055 0.029-0.025 0.059-0.051 0.090-0.075 0.022-0.018 0.044-0.036 0.066-0.053 0.030-0.024 0.061-0.047 0.092-0.071 0.022-0.017 0.046-0.034 0.069-0.050 0.032-0.023 0.064-0.045 0.096-0.067 0.024-0.016 0.047-0.031 0.070-0.047 0.034-0.023 0.069-0.044 0.103-0.065 0.023-0.014 0.046-0.028 0.069-0.042 0.038-0.023 0.077-0.044 0.116-0.065 0.020-0.011 0.040-0.023 0.061-0.033 0.055-0.029 0.11-0.057 0.167-0.083 0.005-0.002 0.009-0.005 0.014-0.007 0.061-0.029 0.123-0.056 0.186-0.082 0.020-0.008 0.041-0.016 0.061-0.024 0.043-0.017 0.086-0.034 0.13-0.050 0.025-0.009 0.050-0.017 0.076-0.026 0.039-0.014 0.079-0.027 0.119-0.039 0.027-0.008 0.055-0.016 0.082-0.024 0.039-0.011 0.078-0.023 0.118-0.033 0.028-0.007 0.056-0.015 0.085-0.021 0.039-0.009 0.078-0.018 0.118-0.026 0.029-0.006 0.058-0.012 0.087-0.018 0.040-0.007 0.081-0.015 0.122-0.021 0.029-0.005 0.057-0.010 0.086-0.014 0.042-0.006 0.085-0.011 0.128-0.016 0.027-0.003 0.055-0.007 0.082-0.009 0.047-0.004 0.095-0.008 0.143-0.011 0.024-0.002 0.047-0.004 0.070-0.005 0.072-0.004 0.144-0.006 0.216-0.006s0.144 0.002 0.216 0.006c0.024 0.001 0.047 0.003 0.070 0.005 0.048 0.003 0.096 0.006 0.143 0.011 0.028 0.002 0.055 0.006 0.082 0.009 0.043 0.005 0.086 0.010 0.128 0.016 0.029 0.004 0.058 0.008 0.086 0.014 0.041 0.006 0.081 0.014 0.122 0.021 0.029 0.006 0.058 0.012 0.087 0.018 0.040 0.008 0.079 0.017 0.118 0.026 0.029 0.007 0.057 0.014 0.085 0.021 0.039 0.010 0.078 0.021 0.118 0.033 0.027 0.008 0.055 0.016 0.082 0.024 0.040 0.012 0.080 0.026 0.119 0.039 0.025 0.009 0.051 0.017 0.076 0.026 0.044 0.016 0.086 0.033 0.13 0.050 0.020 0.008 0.041 0.016 0.061 0.024 0.062 0.026 0.124 0.053 0.186 0.082 0.005 0.002 0.010 0.005 0.014 0.007 0.056 0.026 0.112 0.054 0.167 0.083 0.021 0.011 0.040 0.022 0.060 0.033 0.039 0.021 0.078 0.043 0.116 0.065 0.023 0.014 0.046 0.028 0.069 0.042 0.035 0.021 0.069 0.042 0.103 0.065 0.023 0.015 0.046 0.031 0.070 0.047 0.032 0.022 0.065 0.044 0.096 0.067 0.023 0.016 0.046 0.033 0.069 0.050 0.031 0.024 0.062 0.047 0.092 0.071 0.023 0.017 0.044 0.035 0.066 0.053 0.031 0.025 0.061 0.050 0.090 0.076 0.021 0.018 0.042 0.036 0.062 0.054 0.030 0.028 0.060 0.056 0.090 0.084 0.018 0.017 0.037 0.035 0.056 0.053 0.032 0.032 0.065 0.065 0.096 0.098 0.014 0.015 0.029 0.029 0.043 0.044 0.045 0.048 0.089 0.098 0.132 0.148 0.006 0.007 0.012 0.015 0.017 0.021 0.036 0.044 0.073 0.088 0.107 0.134 0.014 0.018 0.028 0.037 0.042 0.055 0.026 0.035 0.052 0.070 0.077 0.105 0.015 0.021 0.029 0.044 0.044 0.066 0.023 0.033 0.044 0.066 0.066 0.1 0.015 0.024 0.029 0.047 0.044 0.071 0.020 0.033 0.040 0.067 0.059 0.101 0.014 0.025 0.028 0.049 0.041 0.074 0.019 0.034 0.037 0.069 0.055 0.103 0.013 0.025 0.025 0.050 0.037 0.075 0.017 0.036 0.034 0.072 0.050 0.108 0.012 0.025 0.023 0.049 0.033 0.075 0.017 0.038 0.032 0.077 0.047 0.116 0.009 0.024 0.018 0.047 0.028 0.071 0.017 0.045 0.032 0.090 0.047 0.135 0.006 0.019 0.013 0.037 0.019 0.055 0.020 0.064 0.039 0.129 0.057 0.195 0.002 0.010 0.005 0.021 0.007 0.031 0.014 0.056 0.028 0.111 0.040 0.168 0.005 0.023 0.009 0.046 0.013 0.069 0.007 0.035 0.014 0.070 0.021 0.106h12.453v-20.893c0-0.388 0.323-0.703 0.721-0.703h10.419c0.018 0 0.073 0 0.107-0.062s0.004-0.106-0.006-0.12l-2.255-3.3c-0.218-0.319-0.583-0.51-0.977-0.51h-18.817c-0.105 0-0.204 0.040-0.278 0.112l-1.192 1.163c-0.346 0.338-0.807 0.524-1.297 0.524h-12.409c-0.643 0-1.167 0.511-1.167 1.138v18.039z"></path>
<path d="M5.536 7.198h8.814c1.019 0 1.848 0.809 1.848 1.802v4.1c0 0.994-0.829 1.802-1.848 1.802h-8.815c-1.019 0-1.848-0.809-1.848-1.802v-4.1c0.001-0.994 0.83-1.802 1.848-1.802zM5.129 13.1c0 0.218 0.182 0.396 0.406 0.396h8.814c0.224 0 0.406-0.178 0.406-0.396v-4.1c0-0.218-0.182-0.396-0.406-0.396h-8.815c-0.224 0-0.406 0.178-0.406 0.396l0.001 4.1z"></path>
</symbol>
<symbol id="icon-callendar" viewBox="0 0 32 32">
<path stroke-linejoin="round" stroke-linecap="round" stroke-miterlimit="4" stroke-width="2.4" d="M25.333 5.333h-18.667c-1.473 0-2.667 1.194-2.667 2.667v18.667c0 1.473 1.194 2.667 2.667 2.667h18.667c1.473 0 2.667-1.194 2.667-2.667v-18.667c0-1.473-1.194-2.667-2.667-2.667z"></path>
<path stroke-linejoin="round" stroke-linecap="round" stroke-miterlimit="4" stroke-width="2.4" d="M21.333 2.667v5.333"></path>
<path stroke-linejoin="round" stroke-linecap="round" stroke-miterlimit="4" stroke-width="2.4" d="M10.667 2.667v5.333"></path>
<path stroke-linejoin="round" stroke-linecap="round" stroke-miterlimit="4" stroke-width="2.4" d="M4 13.333h24"></path>
</symbol>
<symbol id="icon-cd" viewBox="0 0 32 32">
<path stroke-linejoin="miter" stroke-linecap="butt" stroke-miterlimit="4" stroke-width="2.4" d="M16 28c6.627 0 12-5.373 12-12s-5.373-12-12-12c-6.627 0-12 5.373-12 12s5.373 12 12 12z"></path>
<path stroke-linejoin="miter" stroke-linecap="round" stroke-miterlimit="4" stroke-width="2.4" d="M8.667 16c0-4.050 3.283-7.333 7.333-7.333"></path>
<path stroke-linejoin="miter" stroke-linecap="butt" stroke-miterlimit="4" stroke-width="2.4" d="M16 19.333c1.841 0 3.333-1.492 3.333-3.333s-1.492-3.333-3.333-3.333c-1.841 0-3.333 1.492-3.333 3.333s1.492 3.333 3.333 3.333z"></path>
</symbol>
<symbol id="icon-freezer" viewBox="0 0 32 32">
<path stroke-linejoin="round" stroke-linecap="round" stroke-miterlimit="4" stroke-width="2.0800" d="M23.4 3h-14.793c-1.105 0-2 0.895-2 2v20.387c0 1.104 0.895 2 2 2h14.793c1.104 0 2-0.896 2-2v-20.387c0-1.105-0.896-2-2-2z"></path>
<path stroke-linejoin="round" stroke-linecap="round" stroke-miterlimit="4" stroke-width="2.0800" d="M6.607 13.127h18.787M10.313 10.567v-4.040M10.313 19.44v-4.040M8.427 27.387v0.7c0 0.241 0.095 0.472 0.265 0.643s0.4 0.268 0.642 0.27h1.647c0.242 0 0.475-0.096 0.646-0.268s0.268-0.404 0.268-0.646v-0.7M20.1 27.387v0.7c0 0.242 0.096 0.474 0.268 0.646s0.404 0.268 0.646 0.268h1.653c0.242 0 0.474-0.096 0.646-0.268s0.268-0.404 0.268-0.646v-0.7"></path>
</symbol>
<symbol id="icon-fully-integrated" viewBox="0 0 46 32">
<path d="M2.608 1.8h12.409c0.105 0 0.203-0.040 0.278-0.112l1.192-1.163c0.346-0.338 0.807-0.524 1.297-0.524h18.817c0.876 0 1.69 0.425 2.176 1.136l2.255 3.3c0.32 0.468 0.349 1.067 0.077 1.564s-0.8 0.805-1.377 0.805h-9.698v0.956h4.967c1.317 0 2.501 0.763 3.018 1.945l2.908 6.65 2.548 0.994c1.36 0.531 2.24 1.797 2.24 3.227v6.158c0 0.918-0.766 1.666-1.708 1.666h-2.964c-0.345 2.039-2.164 3.599-4.35 3.599s-4.005-1.561-4.35-3.599h-16.203c-0.345 2.039-2.164 3.599-4.35 3.599s-4.005-1.561-4.35-3.599h-5.921c-0.837 0-1.518-0.664-1.518-1.481v-22.576c0-1.403 1.17-2.544 2.608-2.544zM36.692 30.594c1.637 0 2.969-1.299 2.969-2.896s-1.332-2.896-2.969-2.896c-1.637 0-2.969 1.299-2.969 2.896s1.332 2.896 2.969 2.896zM30.034 26.995h2.307c0.006-0.035 0.013-0.070 0.020-0.105 0.005-0.024 0.009-0.047 0.014-0.071 0.012-0.055 0.025-0.11 0.039-0.164 0.003-0.011 0.005-0.023 0.009-0.034 0.017-0.066 0.036-0.13 0.057-0.195 0.006-0.019 0.013-0.037 0.019-0.056 0.015-0.045 0.031-0.090 0.047-0.134 0.009-0.024 0.018-0.047 0.028-0.071 0.015-0.039 0.030-0.078 0.047-0.116 0.010-0.025 0.022-0.050 0.033-0.075 0.016-0.037 0.032-0.072 0.050-0.108 0.013-0.025 0.025-0.050 0.038-0.075 0.017-0.034 0.036-0.069 0.054-0.103 0.013-0.025 0.027-0.049 0.041-0.074 0.019-0.034 0.039-0.067 0.059-0.101 0.014-0.024 0.029-0.047 0.043-0.071 0.022-0.034 0.044-0.067 0.066-0.101 0.015-0.022 0.029-0.044 0.044-0.065 0.025-0.035 0.051-0.070 0.077-0.105 0.013-0.018 0.026-0.037 0.040-0.055 0.036-0.046 0.072-0.090 0.109-0.135 0.005-0.007 0.010-0.014 0.016-0.020 0.043-0.051 0.087-0.1 0.132-0.148 0.014-0.015 0.028-0.029 0.043-0.044 0.032-0.033 0.063-0.066 0.096-0.099 0.018-0.018 0.038-0.035 0.056-0.053 0.029-0.028 0.059-0.056 0.090-0.084 0.020-0.018 0.041-0.036 0.062-0.054 0.030-0.026 0.060-0.051 0.090-0.077l0.066-0.052c0.031-0.024 0.062-0.048 0.093-0.071 0.022-0.017 0.045-0.034 0.069-0.050 0.032-0.023 0.064-0.045 0.097-0.068 0.023-0.015 0.046-0.031 0.069-0.046 0.034-0.023 0.069-0.044 0.104-0.065 0.022-0.014 0.045-0.028 0.068-0.041 0.038-0.023 0.077-0.044 0.116-0.065 0.020-0.011 0.040-0.023 0.059-0.033 0.056-0.029 0.112-0.057 0.168-0.084 0.005-0.002 0.009-0.004 0.013-0.006 0.061-0.029 0.123-0.056 0.186-0.082 0.020-0.008 0.041-0.016 0.061-0.024 0.043-0.017 0.086-0.034 0.13-0.050 0.025-0.009 0.050-0.017 0.075-0.026 0.040-0.014 0.080-0.027 0.12-0.039 0.027-0.008 0.054-0.016 0.082-0.024 0.039-0.011 0.078-0.023 0.118-0.033 0.028-0.007 0.056-0.015 0.085-0.021 0.039-0.009 0.078-0.018 0.118-0.026 0.029-0.006 0.058-0.012 0.087-0.018 0.040-0.007 0.081-0.015 0.122-0.021 0.029-0.005 0.057-0.010 0.086-0.014 0.042-0.006 0.085-0.011 0.128-0.016 0.027-0.003 0.055-0.007 0.082-0.009 0.047-0.004 0.095-0.008 0.143-0.011 0.024-0.002 0.047-0.004 0.070-0.005 0.072-0.004 0.144-0.006 0.216-0.006s0.144 0.002 0.216 0.006c0.024 0.001 0.047 0.003 0.070 0.005 0.048 0.003 0.096 0.006 0.143 0.011 0.028 0.002 0.055 0.006 0.082 0.009 0.043 0.005 0.086 0.010 0.128 0.016 0.029 0.004 0.058 0.008 0.087 0.014 0.041 0.006 0.081 0.014 0.122 0.021 0.029 0.006 0.058 0.012 0.087 0.018 0.040 0.008 0.079 0.017 0.118 0.026 0.029 0.007 0.057 0.014 0.085 0.021 0.039 0.010 0.078 0.021 0.118 0.033 0.028 0.008 0.055 0.016 0.082 0.024 0.040 0.012 0.080 0.026 0.12 0.039 0.025 0.009 0.050 0.017 0.075 0.026 0.044 0.016 0.087 0.033 0.13 0.050 0.020 0.008 0.041 0.016 0.061 0.024 0.062 0.026 0.125 0.053 0.186 0.082 0.005 0.002 0.009 0.005 0.013 0.006 0.057 0.027 0.112 0.055 0.168 0.084 0.020 0.011 0.039 0.022 0.059 0.033 0.039 0.021 0.078 0.043 0.116 0.065 0.023 0.014 0.045 0.028 0.068 0.041 0.035 0.021 0.070 0.043 0.104 0.065 0.023 0.015 0.046 0.031 0.069 0.046 0.033 0.023 0.065 0.044 0.097 0.068 0.023 0.016 0.046 0.033 0.069 0.050 0.031 0.024 0.062 0.047 0.093 0.071l0.066 0.052c0.031 0.025 0.061 0.051 0.090 0.077 0.021 0.018 0.041 0.036 0.062 0.054 0.031 0.028 0.060 0.056 0.090 0.084 0.018 0.017 0.037 0.035 0.056 0.053 0.033 0.033 0.065 0.066 0.096 0.099 0.014 0.015 0.029 0.029 0.043 0.044 0.045 0.048 0.089 0.098 0.132 0.148 0.006 0.007 0.011 0.014 0.016 0.020 0.037 0.044 0.073 0.089 0.109 0.135 0.014 0.018 0.027 0.037 0.040 0.055 0.026 0.035 0.052 0.070 0.077 0.105 0.015 0.021 0.029 0.043 0.044 0.065 0.022 0.034 0.044 0.067 0.066 0.101 0.014 0.024 0.029 0.047 0.043 0.071 0.020 0.033 0.040 0.067 0.059 0.101 0.014 0.025 0.028 0.049 0.041 0.074 0.018 0.034 0.037 0.069 0.054 0.103 0.013 0.025 0.025 0.050 0.038 0.075 0.017 0.036 0.033 0.071 0.050 0.108 0.011 0.025 0.023 0.049 0.033 0.075 0.017 0.038 0.032 0.077 0.047 0.116 0.010 0.024 0.019 0.047 0.028 0.071 0.016 0.044 0.032 0.089 0.047 0.134 0.006 0.019 0.013 0.038 0.019 0.056 0.020 0.064 0.039 0.129 0.056 0.195 0.003 0.011 0.006 0.023 0.009 0.034 0.014 0.055 0.027 0.109 0.039 0.164 0.005 0.024 0.009 0.047 0.014 0.071 0.007 0.035 0.014 0.069 0.020 0.105h2.963c0.147 0 0.266-0.116 0.266-0.26v-2.946h-1.124v-1.406h1.124v-1.806c0-0.851-0.523-1.606-1.333-1.922l-2.697-1.052h-10.209v9.392zM30.034 16.197h9.257l-2.598-5.939c-0.29-0.662-0.954-1.090-1.692-1.090h-4.967v7.030zM11.789 30.594c1.637 0 2.969-1.299 2.969-2.896s-1.332-2.896-2.969-2.896c-0.051 0-0.102 0.001-0.153 0.004-1.364 0.067-2.488 1.038-2.756 2.309-0.010 0.047-0.019 0.095-0.027 0.143-0.015 0.096-0.025 0.193-0.030 0.291-0.003 0.049-0.004 0.099-0.004 0.149 0 1.597 1.332 2.896 2.969 2.896zM1.441 22.383h1.124v1.406h-1.124v3.131c0 0.041 0.035 0.075 0.077 0.075h5.92c0.006-0.035 0.013-0.069 0.020-0.104 0.005-0.024 0.009-0.048 0.014-0.072 0.012-0.054 0.024-0.107 0.038-0.16 0.003-0.012 0.006-0.025 0.009-0.038 0.017-0.065 0.036-0.129 0.056-0.193 0.006-0.020 0.013-0.039 0.020-0.058 0.015-0.044 0.030-0.089 0.046-0.132 0.009-0.025 0.019-0.048 0.028-0.072 0.015-0.038 0.031-0.077 0.046-0.114 0.011-0.026 0.022-0.051 0.034-0.076 0.016-0.036 0.032-0.071 0.050-0.106 0.012-0.026 0.025-0.051 0.038-0.076 0.017-0.034 0.035-0.068 0.054-0.102 0.014-0.025 0.028-0.049 0.042-0.074 0.020-0.034 0.039-0.067 0.059-0.1 0.014-0.024 0.029-0.048 0.044-0.071 0.021-0.034 0.043-0.067 0.066-0.1 0.014-0.023 0.029-0.045 0.044-0.066 0.025-0.035 0.051-0.070 0.076-0.104 0.014-0.019 0.028-0.038 0.042-0.057 0.035-0.044 0.070-0.088 0.106-0.132 0.006-0.008 0.012-0.016 0.018-0.023 0.043-0.051 0.087-0.1 0.132-0.148 0.014-0.015 0.029-0.030 0.043-0.045 0.032-0.033 0.063-0.066 0.096-0.098 0.018-0.018 0.037-0.035 0.056-0.053 0.029-0.028 0.059-0.056 0.089-0.083 0.020-0.018 0.041-0.036 0.062-0.055 0.029-0.025 0.059-0.051 0.090-0.075 0.022-0.018 0.044-0.036 0.066-0.053 0.030-0.024 0.061-0.047 0.092-0.071 0.022-0.017 0.046-0.034 0.069-0.050 0.032-0.023 0.064-0.045 0.096-0.067 0.024-0.016 0.047-0.031 0.070-0.047 0.034-0.023 0.069-0.044 0.103-0.065 0.023-0.014 0.046-0.028 0.069-0.042 0.038-0.023 0.077-0.044 0.116-0.065 0.020-0.011 0.040-0.023 0.061-0.033 0.055-0.029 0.11-0.057 0.167-0.083 0.005-0.002 0.009-0.005 0.014-0.007 0.061-0.029 0.123-0.056 0.186-0.082 0.020-0.008 0.041-0.016 0.061-0.024 0.043-0.017 0.086-0.034 0.13-0.050 0.025-0.009 0.050-0.017 0.076-0.026 0.039-0.014 0.079-0.027 0.119-0.039 0.027-0.008 0.055-0.016 0.082-0.024 0.039-0.011 0.078-0.023 0.118-0.033 0.028-0.007 0.056-0.015 0.085-0.021 0.039-0.009 0.078-0.018 0.118-0.026 0.029-0.006 0.058-0.012 0.087-0.018 0.040-0.007 0.081-0.015 0.122-0.021 0.029-0.005 0.057-0.010 0.086-0.014 0.042-0.006 0.085-0.011 0.128-0.016 0.027-0.003 0.055-0.007 0.082-0.009 0.047-0.004 0.095-0.008 0.143-0.011 0.024-0.002 0.047-0.004 0.070-0.005 0.072-0.004 0.144-0.006 0.216-0.006s0.144 0.002 0.216 0.006c0.024 0.001 0.047 0.003 0.070 0.005 0.048 0.003 0.096 0.006 0.143 0.011 0.028 0.002 0.055 0.006 0.082 0.009 0.043 0.005 0.086 0.010 0.128 0.016 0.029 0.004 0.058 0.008 0.086 0.014 0.041 0.006 0.081 0.014 0.122 0.021 0.029 0.006 0.058 0.012 0.087 0.018 0.040 0.008 0.079 0.017 0.118 0.026 0.029 0.007 0.057 0.014 0.085 0.021 0.039 0.010 0.078 0.021 0.118 0.033 0.027 0.008 0.055 0.016 0.082 0.024 0.040 0.012 0.080 0.026 0.119 0.039 0.025 0.009 0.051 0.017 0.076 0.026 0.044 0.016 0.086 0.033 0.13 0.050 0.020 0.008 0.041 0.016 0.061 0.024 0.062 0.026 0.124 0.053 0.186 0.082 0.005 0.002 0.010 0.005 0.014 0.007 0.056 0.026 0.112 0.054 0.167 0.083 0.021 0.011 0.040 0.022 0.060 0.033 0.039 0.021 0.078 0.043 0.116 0.065 0.023 0.014 0.046 0.028 0.069 0.042 0.035 0.021 0.069 0.042 0.103 0.065 0.023 0.015 0.046 0.031 0.070 0.047 0.032 0.022 0.065 0.044 0.096 0.067 0.023 0.016 0.046 0.033 0.069 0.050 0.031 0.024 0.062 0.047 0.092 0.071 0.023 0.017 0.044 0.035 0.066 0.053 0.031 0.025 0.061 0.050 0.090 0.076 0.021 0.018 0.042 0.036 0.062 0.054 0.030 0.028 0.060 0.056 0.090 0.084 0.018 0.017 0.037 0.035 0.056 0.053 0.032 0.032 0.065 0.065 0.096 0.098 0.014 0.015 0.029 0.029 0.043 0.044 0.045 0.048 0.089 0.098 0.132 0.148 0.006 0.007 0.012 0.015 0.017 0.021 0.036 0.044 0.073 0.088 0.107 0.134 0.014 0.018 0.028 0.037 0.042 0.055 0.026 0.035 0.052 0.070 0.077 0.105 0.015 0.021 0.029 0.044 0.044 0.066 0.023 0.033 0.044 0.066 0.066 0.1 0.015 0.024 0.029 0.047 0.044 0.071 0.020 0.033 0.040 0.067 0.059 0.101 0.014 0.025 0.028 0.049 0.041 0.074 0.019 0.034 0.037 0.069 0.055 0.103 0.013 0.025 0.025 0.050 0.037 0.075 0.017 0.036 0.034 0.072 0.050 0.108 0.012 0.025 0.023 0.049 0.033 0.075 0.017 0.038 0.032 0.077 0.047 0.116 0.009 0.024 0.018 0.047 0.028 0.071 0.017 0.045 0.032 0.090 0.047 0.135 0.006 0.019 0.013 0.037 0.019 0.055 0.020 0.064 0.039 0.129 0.057 0.195 0.002 0.010 0.005 0.021 0.007 0.031 0.014 0.056 0.028 0.111 0.040 0.168 0.005 0.023 0.009 0.046 0.013 0.069 0.007 0.035 0.014 0.070 0.021 0.106h12.453v-20.893c0-0.388 0.323-0.703 0.721-0.703h10.419c0.018 0 0.073 0 0.107-0.062s0.004-0.106-0.006-0.12l-2.255-3.3c-0.218-0.319-0.583-0.51-0.977-0.51h-18.817c-0.105 0-0.204 0.040-0.278 0.112l-1.192 1.163c-0.346 0.338-0.807 0.524-1.297 0.524h-12.409c-0.643 0-1.167 0.511-1.167 1.138v18.039z"></path>
<path d="M20.116 7.198h4.558c0.921 0 1.67 0.731 1.67 1.629v15.046c0 0.388-0.323 0.703-0.721 0.703h-6.456c-0.398 0-0.721-0.315-0.721-0.703v-15.046c-0.001-0.899 0.748-1.629 1.669-1.629zM19.887 23.17h5.015v-8.267h-5.015v8.267zM19.887 13.497h5.015v-4.669c0-0.123-0.103-0.223-0.229-0.223h-4.558c-0.126 0-0.229 0.1-0.229 0.223l0.001 4.669z"></path>
</symbol>
<symbol id="icon-gas" viewBox="0 0 32 32">
<path d="M25.072 13.991c-0.368-0.453-0.816-0.846-1.232-1.239-1.072-0.907-2.288-1.556-3.311-2.508-2.384-2.206-2.912-5.848-1.392-8.644-1.52 0.348-2.848 1.133-3.983 1.995-4.143 3.143-5.775 8.689-3.823 13.449 0.064 0.151 0.128 0.302 0.128 0.499 0 0.332-0.24 0.635-0.56 0.756-0.368 0.151-0.752 0.060-1.056-0.181-0.091-0.071-0.167-0.159-0.224-0.257-1.808-2.161-2.096-5.259-0.88-7.737-2.672 2.055-4.127 5.531-3.919 8.81 0.096 0.756 0.192 1.511 0.464 2.267 0.224 0.907 0.656 1.813 1.136 2.614 1.728 2.614 4.719 4.488 7.935 4.866 3.423 0.408 7.087-0.181 9.71-2.418 2.927-2.508 3.951-6.528 2.448-9.974l-0.208-0.393c-0.336-0.695-1.232-1.904-1.232-1.904zM20.017 23.512c-0.448 0.363-1.184 0.756-1.76 0.907-1.792 0.604-3.583-0.242-4.639-1.239 1.904-0.423 3.039-1.753 3.375-3.098 0.272-1.209-0.24-2.206-0.448-3.37-0.192-1.118-0.16-2.070 0.272-3.113 0.304 0.574 0.624 1.148 1.008 1.602 1.232 1.511 3.167 2.176 3.583 4.231 0.064 0.212 0.096 0.423 0.096 0.65 0.048 1.239-0.528 2.599-1.488 3.43z"></path>
</symbol>
<symbol id="icon-hand-painted-plate" viewBox="0 0 32 32">
<path fill="none" stroke="#101828" style="stroke: var(--color1, #101828)" stroke-linejoin="miter" stroke-linecap="butt" stroke-miterlimit="4" stroke-width="2.4" d="M12 6.667h16c0.354 0 0.693 0.14 0.943 0.391s0.391 0.589 0.391 0.943v17.333c0 0.354-0.14 0.693-0.391 0.943s-0.589 0.391-0.943 0.391h-16M12 6.667h-8c-0.354 0-0.693 0.14-0.943 0.391s-0.39 0.589-0.39 0.943v17.333c0 0.354 0.14 0.693 0.39 0.943s0.589 0.391 0.943 0.391h8M12 6.667v20"></path>
<path fill="none" stroke="#101828" style="stroke: var(--color1, #101828)" stroke-linejoin="round" stroke-linecap="round" stroke-miterlimit="4" stroke-width="2.4" d="M7.333 11.333v2.667M24.667 10.667l-8 11.333"></path>
<path d="M8.667 18c0-0.736-0.597-1.333-1.333-1.333s-1.333 0.597-1.333 1.333c0 0.736 0.597 1.333 1.333 1.333s1.333-0.597 1.333-1.333z"></path>
<path d="M8.667 22c0-0.736-0.597-1.333-1.333-1.333s-1.333 0.597-1.333 1.333c0 0.736 0.597 1.333 1.333 1.333s1.333-0.597 1.333-1.333z"></path>
</symbol>
<symbol id="icon-heart" viewBox="0 0 32 32">
<path stroke-linejoin="round" stroke-linecap="round" stroke-miterlimit="4" stroke-width="3.0667" d="M27.787 6.147c-0.681-0.681-1.49-1.222-2.379-1.591s-1.844-0.559-2.807-0.559-1.917 0.19-2.807 0.559c-0.89 0.369-1.699 0.909-2.38 1.591l-1.413 1.413-1.413-1.413c-1.376-1.376-3.241-2.148-5.187-2.148s-3.811 0.773-5.187 2.148c-1.376 1.376-2.148 3.241-2.148 5.187s0.773 3.811 2.148 5.187l11.787 11.787 11.787-11.787c0.681-0.681 1.222-1.49 1.591-2.38s0.559-1.844 0.559-2.807-0.19-1.917-0.559-2.807c-0.369-0.89-0.909-1.699-1.591-2.38z"></path>
</symbol>
<symbol id="icon-kitchen" viewBox="0 0 32 32">
<path stroke-linejoin="round" stroke-linecap="round" stroke-miterlimit="4" stroke-width="2.4" d="M25.333 20v-16c-6.421 6.125-6.697 11.092-6.667 16h6.667zM25.333 20v8h-1.333v-4M10.667 5.333v22.667M6.667 5.333v4c0 1.061 0.421 2.078 1.172 2.828s1.768 1.172 2.828 1.172c1.061 0 2.078-0.421 2.828-1.172s1.172-1.768 1.172-2.828v-4"></path>
</symbol>
<symbol id="icon-location" viewBox="0 0 29 32">
<path stroke-linejoin="round" stroke-linecap="round" stroke-miterlimit="4" stroke-width="2.4" d="M26.4 13.333c0 9.333-12 17.333-12 17.333s-12-8-12-17.333c0-3.183 1.264-6.235 3.515-8.485s5.303-3.515 8.485-3.515c3.183 0 6.235 1.264 8.485 3.515s3.515 5.303 3.515 8.485z"></path>
<path stroke-linejoin="round" stroke-linecap="round" stroke-miterlimit="4" stroke-width="2.4" d="M14.4 17.333c2.209 0 4-1.791 4-4s-1.791-4-4-4c-2.209 0-4 1.791-4 4s1.791 4 4 4z"></path>
</symbol>
<symbol id="icon-microwave" viewBox="0 0 32 32">
<path stroke-linejoin="round" stroke-linecap="round" stroke-miterlimit="4" stroke-width="2.24" d="M29.714 5.714h-27.429c-0.303 0-0.594 0.12-0.808 0.335s-0.335 0.505-0.335 0.808v18.286c0 0.303 0.12 0.594 0.335 0.808s0.505 0.335 0.808 0.335h27.429c0.303 0 0.594-0.12 0.808-0.335s0.335-0.505 0.335-0.808v-18.286c0-0.303-0.12-0.594-0.335-0.808s-0.505-0.335-0.808-0.335z"></path>
<path stroke-linejoin="round" stroke-linecap="round" stroke-miterlimit="4" stroke-width="2.24" d="M25.143 11.428h1.143M25.143 16h1.143M19.428 10.286h-12.571c-0.303 0-0.594 0.12-0.808 0.335s-0.335 0.505-0.335 0.808v9.143c0 0.303 0.12 0.594 0.335 0.808s0.505 0.335 0.808 0.335h12.571c0.303 0 0.594-0.12 0.808-0.335s0.335-0.505 0.335-0.808v-9.143c0-0.303-0.12-0.594-0.335-0.808s-0.505-0.335-0.808-0.335z"></path>
</symbol>
<symbol id="icon-petrol" viewBox="0 0 32 32">
<path d="M26.36 9.64l0.013-0.013-4.96-4.96-1.413 1.413 2.813 2.813c-1.253 0.48-2.147 1.68-2.147 3.107 0 0.438 0.086 0.871 0.254 1.276s0.413 0.772 0.723 1.081c0.625 0.625 1.473 0.976 2.357 0.976 0.48 0 0.92-0.107 1.333-0.28v9.613c0 0.354-0.14 0.693-0.391 0.943s-0.589 0.391-0.943 0.391c-0.354 0-0.693-0.14-0.943-0.391s-0.391-0.589-0.391-0.943v-6c0-0.707-0.281-1.386-0.781-1.886s-1.178-0.781-1.886-0.781h-1.333v-9.333c0-0.707-0.281-1.386-0.781-1.886s-1.178-0.781-1.886-0.781h-8c-0.707 0-1.386 0.281-1.886 0.781s-0.781 1.178-0.781 1.886v21.333h13.333v-10h2v6.667c0 0.884 0.351 1.732 0.976 2.357s1.473 0.976 2.357 0.976c0.438 0 0.871-0.086 1.276-0.254s0.772-0.413 1.081-0.723c0.309-0.309 0.555-0.677 0.723-1.081s0.254-0.838 0.254-1.276v-12.667c0-0.92-0.373-1.76-0.973-2.36zM16 18v7.333h-8v-9.333h8v2zM16 13.333h-8v-6.667h8v6.667zM24 13.333c-0.354 0-0.693-0.14-0.943-0.39s-0.391-0.589-0.391-0.943 0.14-0.693 0.391-0.943c0.25-0.25 0.589-0.39 0.943-0.39s0.693 0.14 0.943 0.39c0.25 0.25 0.391 0.589 0.391 0.943s-0.14 0.693-0.391 0.943c-0.25 0.25-0.589 0.39-0.943 0.39z"></path>
</symbol>
<symbol id="icon-radio" viewBox="0 0 32 32">
<path stroke-linejoin="miter" stroke-linecap="butt" stroke-miterlimit="4" stroke-width="2.0800" d="M2.667 18.667c0-5.028 0-7.543 1.563-9.104 1.561-1.563 4.076-1.563 9.104-1.563h5.333c5.028 0 7.543 0 9.104 1.563 1.563 1.561 1.563 4.076 1.563 9.104s0 7.543-1.563 9.104c-1.561 1.563-4.076 1.563-9.104 1.563h-5.333c-5.028 0-7.543 0-9.104-1.563-1.563-1.561-1.563-4.076-1.563-9.104z"></path>
<path stroke-linejoin="miter" stroke-linecap="butt" stroke-miterlimit="4" stroke-width="2.0800" d="M6.667 14.667c0-0.707 0.281-1.386 0.781-1.886s1.178-0.781 1.886-0.781h13.333c0.707 0 1.386 0.281 1.886 0.781s0.781 1.178 0.781 1.886-0.281 1.386-0.781 1.886c-0.5 0.5-1.178 0.781-1.886 0.781h-13.333c-0.707 0-1.386-0.281-1.886-0.781s-0.781-1.178-0.781-1.886zM12 22.667c0 0.53-0.211 1.039-0.586 1.414s-0.884 0.586-1.414 0.586-1.039-0.211-1.414-0.586c-0.375-0.375-0.586-0.884-0.586-1.414s0.211-1.039 0.586-1.414 0.884-0.586 1.414-0.586c0.53 0 1.039 0.211 1.414 0.586s0.586 0.884 0.586 1.414z"></path>
<path stroke-linejoin="miter" stroke-linecap="round" stroke-miterlimit="4" stroke-width="2.0800" d="M20 15.333v2M17.333 22.667h6.667M8.667 8l11.333-5.333"></path>
</symbol>
<symbol id="icon-rating-star" viewBox="0 0 34 32">
<path fill="#f2f4f7" style="fill: var(--color2, #f2f4f7); stroke: var(--color2, #f2f4f7)" stroke="#f2f4f7" stroke-linejoin="miter" stroke-linecap="butt" stroke-miterlimit="4" stroke-width="2.56" d="M13.227 10.020l3.84-7.277 3.84 7.277c0.34 0.644 0.959 1.093 1.675 1.217l8.108 1.403-5.735 5.9c-0.507 0.522-0.744 1.249-0.64 1.97l1.171 8.144-7.384-3.631c-0.653-0.321-1.418-0.321-2.071 0l-7.384 3.631 1.171-8.144c0.104-0.72-0.133-1.448-0.64-1.97l-5.735-5.9 8.108-1.403c0.717-0.124 1.336-0.574 1.675-1.217z"></path>
</symbol>
<symbol id="icon-route" viewBox="0 0 32 32">
<path d="M6.667 4c-1.473 0-2.667 1.194-2.667 2.667s1.194 2.667 2.667 2.667c1.473 0 2.667-1.194 2.667-2.667s-1.194-2.667-2.667-2.667zM1.333 6.667c0-2.946 2.388-5.333 5.333-5.333s5.333 2.388 5.333 5.333c0 2.946-2.388 5.333-5.333 5.333s-5.333-2.388-5.333-5.333z"></path>
<path d="M25.333 22.667c-1.473 0-2.667 1.194-2.667 2.667s1.194 2.667 2.667 2.667c1.473 0 2.667-1.194 2.667-2.667s-1.194-2.667-2.667-2.667zM20 25.333c0-2.945 2.388-5.333 5.333-5.333s5.333 2.388 5.333 5.333c0 2.946-2.388 5.333-5.333 5.333s-5.333-2.388-5.333-5.333z"></path>
<path d="M13.333 6.667c0-0.736 0.597-1.333 1.333-1.333h8.4c4.13 0 5.62 5.404 1.987 7.429l-15.473 8.804c-1.16 0.644-0.782 2.434 0.686 2.434h7.067c0.736 0 1.333 0.597 1.333 1.333s-0.597 1.333-1.333 1.333h-7.067c-4.13 0-5.619-5.404-1.987-7.429l15.473-8.804c1.16-0.644 0.782-2.434-0.686-2.434h-8.4c-0.736 0-1.333-0.597-1.333-1.333z"></path>
</symbol>
<symbol id="icon-shower" viewBox="0 0 32 32">
<path stroke-linejoin="round" stroke-linecap="round" stroke-miterlimit="4" stroke-width="2.6667" d="M1.778 1.778l4.444 4.444M18.667 6.222c-1.656-1.623-3.885-2.527-6.204-2.515s-4.539 0.938-6.178 2.577c-1.639 1.639-2.566 3.86-2.577 6.178s0.892 4.548 2.515 6.204M21.333 3.556l-17.778 17.778M19.555 24.889v0.018M12.444 23.111v0.018M17.778 17.778v0.018M23.111 12.444v0.018M14.222 30.222v0.018M24.889 19.556v0.018M30.222 14.222v0.018"></path>
</symbol>
<symbol id="icon-toilet" viewBox="0 0 32 32">
<path d="M24 4c1.939 0 3.269 1.647 4.040 3.313 0.761 1.653 1.224 3.811 1.287 6.145l0.007 0.541v12.667c0 0.18-0.036 0.357-0.106 0.523s-0.173 0.315-0.303 0.439c-0.13 0.125-0.283 0.222-0.451 0.285s-0.347 0.093-0.527 0.086l-0.165-0.019-3.781-0.629-3.781 0.629c-0.16 0.027-0.324 0.024-0.483-0.008l-0.157-0.041-3.579-1.193-3.579 1.193c-0.188 0.063-0.387 0.083-0.583 0.059s-0.385-0.092-0.552-0.197-0.309-0.248-0.414-0.415c-0.105-0.167-0.172-0.356-0.196-0.553l-0.009-0.159v-3.903c-0.708 0.733-1.595 1.236-2.667 1.236-1.939 0-3.269-1.647-4.040-3.313-0.819-1.78-1.293-4.145-1.293-6.687s0.473-4.907 1.293-6.687c0.735-1.592 1.981-3.164 3.78-3.303l0.26-0.011h16zM24 6.667h-12.291c0.12 0.213 0.229 0.429 0.329 0.647 0.821 1.78 1.295 4.145 1.295 6.687v10.817l2.245-0.749c0.274-0.091 0.569-0.091 0.843 0l3.687 1.229 3.673-0.613c0.144-0.024 0.293-0.024 0.437 0l2.448 0.409v-11.093c0-2.245-0.423-4.213-1.049-5.569-0.677-1.471-1.347-1.764-1.617-1.764zM8 6.667c-0.271 0-0.94 0.293-1.617 1.764-0.627 1.356-1.049 3.324-1.049 5.569s0.423 4.213 1.049 5.569c0.677 1.471 1.347 1.764 1.617 1.764s0.94-0.293 1.617-1.764c0.627-1.356 1.049-3.324 1.049-5.569s-0.423-4.213-1.049-5.569c-0.677-1.471-1.347-1.764-1.617-1.764zM8 11.333c0.736 0 1.333 1.193 1.333 2.667s-0.597 2.667-1.333 2.667c-0.736 0-1.333-1.193-1.333-2.667s0.597-2.667 1.333-2.667z"></path>
</symbol>
<symbol id="icon-tv" viewBox="0 0 28 32">
<path stroke-linejoin="round" stroke-linecap="round" stroke-miterlimit="4" stroke-width="1.92" d="M22.4 26.667h-17.067c-2.364 0-4.267-1.903-4.267-4.267v-10.667c0-2.364 1.903-4.267 4.267-4.267h17.067c2.364 0 4.267 1.903 4.267 4.267v10.667c0 2.364-1.903 4.267-4.267 4.267z"></path>
<path stroke-linejoin="round" stroke-linecap="round" stroke-miterlimit="4" stroke-width="1.92" d="M9.6 30.933h8.533"></path>
<path stroke-linejoin="round" stroke-linecap="round" stroke-miterlimit="4" stroke-width="1.92" d="M13.867 7.467l6.4-6.4"></path>
<path stroke-linejoin="round" stroke-linecap="round" stroke-miterlimit="4" stroke-width="1.92" d="M13.867 7.467l-6.4-6.4"></path>
</symbol>
<symbol id="icon-water-outline" viewBox="0 0 32 32">
<path stroke-linejoin="miter" stroke-linecap="butt" stroke-miterlimit="10" stroke-width="2.4" d="M25 20c0 5.523-3.477 9-9 9s-9-3.477-9-9c0-5.927 6.452-13.928 8.431-16.242 0.070-0.082 0.158-0.148 0.256-0.194s0.205-0.069 0.314-0.069c0.108 0 0.215 0.023 0.314 0.069s0.186 0.111 0.256 0.194c1.978 2.314 8.43 10.316 8.43 16.242z"></path>
<path stroke-linejoin="round" stroke-linecap="round" stroke-miterlimit="4" stroke-width="2.4" d="M21.5 20.5c0 1.193-0.474 2.338-1.318 3.182s-1.988 1.318-3.182 1.318"></path>
</symbol>
</defs>
</svg>
